<mxfile host="Electron" modified="2023-05-26T19:48:49.727Z" agent="Mozilla/5.0 (Windows NT 10.0; Win64; x64) AppleWebKit/537.36 (KHTML, like Gecko) draw.io/21.2.8 Chrome/112.0.5615.165 Electron/24.2.0 Safari/537.36" etag="tZBajQAX2oXTcgbzDUtx" version="21.2.8" type="device">
  <diagram id="5S8MFwbHM8TMoVbZS-N_" name="Arquitectura desplegada">
    <mxGraphModel dx="584" dy="844" grid="1" gridSize="10" guides="1" tooltips="1" connect="1" arrows="1" fold="1" page="1" pageScale="1" pageWidth="850" pageHeight="1100" math="0" shadow="0">
      <root>
        <mxCell id="0" />
        <mxCell id="1" parent="0" />
        <mxCell id="asST_lyemSe_a0fDVJPn-24" value="" style="rounded=0;whiteSpace=wrap;html=1;" vertex="1" parent="1">
          <mxGeometry x="1198" y="30" width="912" height="530" as="geometry" />
        </mxCell>
        <mxCell id="asST_lyemSe_a0fDVJPn-8" value="Archivos diarios" style="edgeStyle=orthogonalEdgeStyle;rounded=0;orthogonalLoop=1;jettySize=auto;html=1;entryX=0;entryY=0.5;entryDx=0;entryDy=0;entryPerimeter=0;" edge="1" parent="1" source="asST_lyemSe_a0fDVJPn-1" target="asST_lyemSe_a0fDVJPn-4">
          <mxGeometry relative="1" as="geometry">
            <Array as="points">
              <mxPoint x="1284" y="363" />
              <mxPoint x="1380" y="363" />
            </Array>
          </mxGeometry>
        </mxCell>
        <mxCell id="asST_lyemSe_a0fDVJPn-1" value="andes-proyecto-grado&lt;br&gt;ETL / ELT" style="image;aspect=fixed;html=1;points=[];align=center;fontSize=12;image=img/lib/azure2/compute/Function_Apps.svg;" vertex="1" parent="1">
          <mxGeometry x="1250" y="200" width="68" height="60" as="geometry" />
        </mxCell>
        <mxCell id="asST_lyemSe_a0fDVJPn-3" style="edgeStyle=orthogonalEdgeStyle;rounded=0;orthogonalLoop=1;jettySize=auto;html=1;" edge="1" parent="1" source="asST_lyemSe_a0fDVJPn-2" target="asST_lyemSe_a0fDVJPn-1">
          <mxGeometry relative="1" as="geometry" />
        </mxCell>
        <mxCell id="asST_lyemSe_a0fDVJPn-2" value="datos.gov.co" style="outlineConnect=0;dashed=0;verticalLabelPosition=bottom;verticalAlign=top;align=center;html=1;shape=mxgraph.aws3.http_protocol;fillColor=#5294CF;gradientColor=none;" vertex="1" parent="1">
          <mxGeometry x="1070" y="197" width="63" height="66" as="geometry" />
        </mxCell>
        <mxCell id="asST_lyemSe_a0fDVJPn-18" value="Se consumen los datos&amp;nbsp;&lt;br&gt;procesados" style="edgeStyle=orthogonalEdgeStyle;rounded=0;orthogonalLoop=1;jettySize=auto;html=1;entryX=0;entryY=0.5;entryDx=0;entryDy=0;" edge="1" parent="1" source="asST_lyemSe_a0fDVJPn-4" target="asST_lyemSe_a0fDVJPn-17">
          <mxGeometry relative="1" as="geometry">
            <Array as="points">
              <mxPoint x="1525" y="474" />
            </Array>
          </mxGeometry>
        </mxCell>
        <mxCell id="asST_lyemSe_a0fDVJPn-4" value="Azure BlobStorage" style="verticalLabelPosition=bottom;html=1;verticalAlign=top;align=center;strokeColor=none;fillColor=#00BEF2;shape=mxgraph.azure.storage_blob;" vertex="1" parent="1">
          <mxGeometry x="1500" y="340" width="50" height="45" as="geometry" />
        </mxCell>
        <mxCell id="asST_lyemSe_a0fDVJPn-7" style="edgeStyle=orthogonalEdgeStyle;rounded=0;orthogonalLoop=1;jettySize=auto;html=1;" edge="1" parent="1" source="asST_lyemSe_a0fDVJPn-5" target="asST_lyemSe_a0fDVJPn-6">
          <mxGeometry relative="1" as="geometry" />
        </mxCell>
        <mxCell id="asST_lyemSe_a0fDVJPn-11" style="edgeStyle=orthogonalEdgeStyle;rounded=0;orthogonalLoop=1;jettySize=auto;html=1;" edge="1" parent="1" source="asST_lyemSe_a0fDVJPn-5" target="asST_lyemSe_a0fDVJPn-10">
          <mxGeometry relative="1" as="geometry" />
        </mxCell>
        <mxCell id="asST_lyemSe_a0fDVJPn-13" style="edgeStyle=orthogonalEdgeStyle;rounded=0;orthogonalLoop=1;jettySize=auto;html=1;entryX=0;entryY=0.5;entryDx=0;entryDy=0;entryPerimeter=0;" edge="1" parent="1" source="asST_lyemSe_a0fDVJPn-5" target="asST_lyemSe_a0fDVJPn-12">
          <mxGeometry relative="1" as="geometry">
            <Array as="points">
              <mxPoint x="1732" y="334" />
            </Array>
          </mxGeometry>
        </mxCell>
        <mxCell id="asST_lyemSe_a0fDVJPn-5" value="reporte-contratos" style="image;aspect=fixed;html=1;points=[];align=center;fontSize=12;image=img/lib/azure2/app_services/App_Services.svg;" vertex="1" parent="1">
          <mxGeometry x="1700" y="198" width="64" height="64" as="geometry" />
        </mxCell>
        <mxCell id="asST_lyemSe_a0fDVJPn-9" value="Predicciones" style="edgeStyle=orthogonalEdgeStyle;rounded=0;orthogonalLoop=1;jettySize=auto;html=1;" edge="1" parent="1" source="asST_lyemSe_a0fDVJPn-6" target="asST_lyemSe_a0fDVJPn-1">
          <mxGeometry relative="1" as="geometry" />
        </mxCell>
        <mxCell id="asST_lyemSe_a0fDVJPn-16" value="Se almacenan &lt;br&gt;las predicciones" style="edgeStyle=orthogonalEdgeStyle;rounded=0;orthogonalLoop=1;jettySize=auto;html=1;entryX=0.5;entryY=0;entryDx=0;entryDy=0;entryPerimeter=0;" edge="1" parent="1" source="asST_lyemSe_a0fDVJPn-6" target="asST_lyemSe_a0fDVJPn-4">
          <mxGeometry x="0.2537" relative="1" as="geometry">
            <Array as="points">
              <mxPoint x="1525" y="110" />
            </Array>
            <mxPoint as="offset" />
          </mxGeometry>
        </mxCell>
        <mxCell id="asST_lyemSe_a0fDVJPn-6" value="v1/prediccion (REST)" style="dashed=0;outlineConnect=0;html=1;align=center;labelPosition=center;verticalLabelPosition=bottom;verticalAlign=top;shape=mxgraph.weblogos.json" vertex="1" parent="1">
          <mxGeometry x="1697" y="50" width="70" height="75.8" as="geometry" />
        </mxCell>
        <mxCell id="asST_lyemSe_a0fDVJPn-10" value="portal publico" style="outlineConnect=0;dashed=0;verticalLabelPosition=bottom;verticalAlign=top;align=center;html=1;shape=mxgraph.aws3.http_protocol;fillColor=#5294CF;gradientColor=none;" vertex="1" parent="1">
          <mxGeometry x="1880" y="197" width="63" height="66" as="geometry" />
        </mxCell>
        <mxCell id="asST_lyemSe_a0fDVJPn-14" value="Ciudadanos marcan contratos" style="edgeStyle=orthogonalEdgeStyle;rounded=0;orthogonalLoop=1;jettySize=auto;html=1;entryX=1;entryY=0.5;entryDx=0;entryDy=0;entryPerimeter=0;exitX=0.05;exitY=0.91;exitDx=0;exitDy=0;exitPerimeter=0;" edge="1" parent="1" source="asST_lyemSe_a0fDVJPn-12" target="asST_lyemSe_a0fDVJPn-4">
          <mxGeometry relative="1" as="geometry">
            <Array as="points">
              <mxPoint x="1883" y="363" />
              <mxPoint x="1680" y="363" />
            </Array>
          </mxGeometry>
        </mxCell>
        <mxCell id="asST_lyemSe_a0fDVJPn-12" value="Sistema de marcaciÃ³n" style="outlineConnect=0;dashed=0;verticalLabelPosition=bottom;verticalAlign=top;align=center;html=1;shape=mxgraph.aws3.http_protocol;fillColor=#5294CF;gradientColor=none;" vertex="1" parent="1">
          <mxGeometry x="1880" y="301" width="63" height="66" as="geometry" />
        </mxCell>
        <mxCell id="asST_lyemSe_a0fDVJPn-19" value="Portal&lt;br&gt;embebido" style="edgeStyle=orthogonalEdgeStyle;rounded=0;orthogonalLoop=1;jettySize=auto;html=1;entryX=0.95;entryY=0.5;entryDx=0;entryDy=0;entryPerimeter=0;" edge="1" parent="1" source="asST_lyemSe_a0fDVJPn-17" target="asST_lyemSe_a0fDVJPn-10">
          <mxGeometry relative="1" as="geometry">
            <Array as="points">
              <mxPoint x="2020" y="474" />
              <mxPoint x="2020" y="230" />
            </Array>
          </mxGeometry>
        </mxCell>
        <mxCell id="asST_lyemSe_a0fDVJPn-23" style="edgeStyle=orthogonalEdgeStyle;rounded=0;orthogonalLoop=1;jettySize=auto;html=1;entryX=0.5;entryY=1;entryDx=0;entryDy=0;entryPerimeter=0;" edge="1" parent="1" source="asST_lyemSe_a0fDVJPn-17" target="asST_lyemSe_a0fDVJPn-12">
          <mxGeometry relative="1" as="geometry" />
        </mxCell>
        <mxCell id="asST_lyemSe_a0fDVJPn-17" value="" style="shape=image;verticalLabelPosition=bottom;labelBackgroundColor=default;verticalAlign=top;aspect=fixed;imageAspect=0;image=data:image/png,iVBORw0KGgoAAAANSUhEUgAAAfQAAAEZCAYAAABhDNfWAAAACXBIWXMAAA7EAAAOxAGVKw4bAAAgAElEQVR4nOy9Tcy1TXIeVH3e1zPjjH/Gln8S40BsIiLAsIiyTiIWFkIoYWERJEJYIARiAVJEkJBIkIgiBCxYJVlkgYTEyhKgLFlmxxLLUcAKjmM7hCSWjcczHs833zzF4u6quqq6+u8853m/c85z96vnPX13V9dV3fc5XV3Vf4WILpSHF8h76dD10lfDa8u/BcZKvXfongFjB/tamU+Mx8W4NpwYJ8aJcWOMrMBlkj9Kf7Ywa5/3jrHD41q8E+O+MEZ83qpfODFOjBNjgnHBhwQsCoJ/MT3yWYn38iNO1iCvLbdCSyEt1n1HtkfEiHgjviPZRrQnxmNjzMJTdZgnxonxgBhnOMMZznCGM5zh0ULPiuvlZbQjHrsyzHityDazMHbkfS3tM2L0aK95jyfG42G8FZ8T48Q4MV6BEV1yM+WexTPamDZSsKMOaFV5rbgUdzBm9dihfSaMEW2P14oiOTEeC2O1U+p9R0+ME+PEeAOMsgh8hjOc4Qwa/uH/9icuv/dPfvH7Pn7Pd78Pexamo1NhImImKvJAlsHUhkJEjLS1LHOgifSUd2KcgJRSy7NPe3kJ9AIkjLFSETDkMV9+98s/+jNf/wM/+7deErHOcIY3DYUOTS9fPonjJw3yaTOO/Hq0lKTNeL0Vxgh7RpuFZ8GY4e28gxPjQTD+75//pz5+mX73XyXmP0OF/mQh+gnhrfoQFWNQ5NTJWgnZIGCPICmSyXpFQJ1eiF6Y6DeI6G8RlZ9/+dIP/s2f+rlf+T0gv8U7noUT451iiELHkCn0LL+X3tv32utYZhi9TmgHg6hfzxHGCK9H+14wIo/V99ELJ8YdY/z6z//wv0L08t8Xon95xeKeBacE2RvESLPEaJaHFnRHjqxIRl+QT9fVcHxWD8XfZSp/4bNv0t/85/793xoIOwy93+Utw4nxBBjRQs/CW40oznCGM9x5+PX/+acv9Plv/pdE9F8Q0SUxto8wsMadCxsUYuPZ5hoPrnaOfLtCDALy65RdZjsg6rVNKfTXLh8//id/8M/8xucrEGc4wzXhsvgZ6Xs0vfxslBFpR9g7GBmvt8Do0V4S2mva6h4wYjkKNCfGE2P8nb/2Axf6/Df/OyL6S6Uq82mIijikpfT1D+feMZT4x/ZJXJ/DH8FnnAZo+JENKobp3KbHKqZyHnX6j14+//x/+Hv/49c+QrFe37gaev1q772eGE+O8bGTOWP0ms6FyFv8F0jL+PTmHmYYWVjByHj16p7JNnNlPgpGpB89z9q918Ynxh1jfP+PXP4cEf/5Y2VbsJpBAZfiF6ippV0TxK0u7nnnzi4Qh3RnLbO55Qnzii/jQm8qYGVUkgwoMMIJj5KBwWigRv9s+VD+NhH9t4FypYPv/eZX+usT451grLjcI6NIu1N+h+9K/kyekbIa8ZqVe+8YPR63pD0xvkCMX//5H/4xopf/i5i+luW7Few7k984vxxIOSZASBX6JHAsEFeto6wZ08EceTMN0KNvy39GVP6lP/Rv/9YvLVCf4QxbQSx0+WHHz5hHkEbheVZulo88R5b0yIqcdWSrGJH2Woxe/iNgIP1oYRXizd55JsOJcZcY/BcaZQ6KsMhzFgYal8VaLUbiSGvZZlFaujeNxHnQzLkXsjwpr+KH9MYtn8icBRxkENm2uN5utwr3JSL+i0T079ak0eKnlXeOtBJ6eSfGk2Nknf0sbRYuC7x6FRmFKHzsxG6N8QLPo5fzrBi9/JEiieVm358T4w4x/v7/8lMfifnPSaIoS9R7UdGiexzpMcSyzbyzzHsDGKbFfHHvc2BYoDyClUyA3sCDDkWOypx7lYrz9eEP85iJXl7o537lf/rRHwAuK+82Cy9JXq/MifEOMD4CUa8wjujjaJ5C/orV18OI5XdGOJksWbkdjF65lcFNrx0eCSPyz/DiqHHl/Y9oTow7wCif/fYfJaIf02cis5pRaWbPBAoY0lJrPHnubS8b0TSKdsV1ntEH17zy7Wx7660BwLLpNEKhrxB//ieJ6H+tKav9Zq/v2o2fGE+KEUfsF/jD9BjPnnv0kd/ISujRZiFiiTLPymW0M4yMx2jA8GwYl85fhtf7Ho3yRn8nxheIUejlZ7pLwbMl4DHUPIY/SSvwRxnL0vmj4EKPcIGuy4NzTLecXaI8KJOlZWySwcSRxz9Da7/n1TiG3T7jxHgSjI80HjXcYgTyaLQ7PG41QrtXjF54LcZKODG+KAymH2sWfWULyyiJB4t0tk6styd8XCjnnYmWlW3m3RO3eoG40gTGcQ49hQNvBRr7pdD30u1/27fmdWI8GEY20o+fvZF/NlKIo4YZj6zcav6uPF8Uxg7ePWM8y/s4MWblCl2iVRznuV28OJ1IRDaFHNefNQEsdzRzM2tc5sud1Q+MZd67t4BOBwJMzbGvjPPdwlYqIPUDS39JThg8NLIeOFl/uRpGZWd98onxpBjxkIPscyUegXqKfVRuJT9zE+/I89qOcZdHRvOoGKu8euHEeCAMVMY4d+4Czh8HzZ3NqWt84Donqsowyy/JKvJi+CJnYni3MpLPTAcesR5NpPUwOFkifTEsKCb9WvbOeulYdiXvxHgnGNHlfqtwa56ozHfcklL5VdrXuDp7vF7Iv8BHwtilyWh33teJcUcYO5eXDDzTbfkFNzu6u8UibvaVEyhqDuVKUOwlpCer2PB2t3jT26hKGd1oXV4Y08zexzV9KfYBWd95YjwpxqVGRhbfbvw1tKP0Xn7vL5a5BmOEM+OVWUCPjnHtO+/Jc2LcJ0a76AsWl2UrwdKFbkzeRR/+iMhbsgTucNDGUQEzBYUZlTkSAT+mwDvw3Q2N6z5WrHTq6TF33jnGe+/8tXxPjAfGyFzus9Cju7ZTei0tBnRXXIvxkuRnGLN2eCaMGfYt3vOJcS8YdZ46mxfvBs7d4RoflMGAZUjKwUAh8or6FC1zpJEBRkzTZ8FAy15c/EFOzhYHcKh7FA7z2sZYfeej93cLJXJiPDhG3IcuiuAC6ZdAk4Ws/MxVPKLplVkJ17r7EWPH5bnSPo+MMcO+xXs8Me4Lo11JXpUWrtQOWebShrKzQUGj80KhxsueuNYlwe35Di5zbiJJWnDrxwNy5LjaAnFR+CoDmTJvFDvO81sdr506GYU4oD8x3glGpv0jEcYvSbxXPqPt0fVod/jO8K7B6JXrhWfEGPFalS2jOzHuHEOVTsmfB27kJmSe7kzJds1vKNC41hOsZouZfMK0QTN9AITxIhqNlzbOxdenmRIoQBt4QFjpwyJ9Fh+FE+PJMXr70DMLbyf+VrSPUu7EeBu+J8YnxFArlHPljVZybxFZ46ruhV5epsQTsz+bZ3flgyu/gYwWfpwOqA/O/c5tnjwW5IWhSHsy0f77pEWa13xnTowHxrhQPjKYWQI7+THMeIzKrNLeEmPV8h1hXGNh3SPGarkVvifGnWJEaxM/idoEXWyW0WE+WsIxwCKyZo5ZBhSZJQ3Wb5zWjnxjnrILlewNPKJY+iwNlsiRtZsMkmjdkpuFyOcaa/HEeAKM7D70VUEuZKMEjMd8KYfxGUYsl2HM+PbCDkZPzmswMO9RMXo8d3FG7/zEuAOM3iI2qpndRV/RBC5+MdrQNQ+KNeWfzXWHgYUqy7CCrhEhWOByCEzvytXMjR/n8ZvFcq2I6cK+Gnr9UtbPxn5rNZwYT47xjC536qTfEu/EeB3Ga1xQJ8YnwEj1bmoCt6Epm6wIb8zYTHnjsvEOy2bhGZQHS9jBZoq8wQku9hLKNLJm8U4a8LrV+xw9nxjvCOMCf5R8jtKuceeNyq3IcE8Yvfxda+teMVbD7ju4JpwYnxKDye8dx3j4c4vV2MrGFWLuelEs11N2PR+5lE3I1L0Ornl3VCsWFbkIPrFekTfClMHiuqSajnH9q+nXvuNYNvK5xffoxHhAjNHRr1kaugJmZXbjLz0hk7BCl6XtYmR1nYUMoxfuGQPpBA9xMb4zMOjhnxj3hXGEzPrsLIBDDegsYnG9d3gOF5FdE8J8vXOXJ25zcbUPnA6OLZG37KM7vmQDjuDKB6zReyRIy2gpiUfaE+MdYcyOfp256m4RYsWuwV4pt0M7c3nMeKy0z71j9J5jmThg2JGpl3difMEYTPncNyqv9CjWoJh1dfnIFS0WK1jgkY9zn/cGFCPXd5gz7ylvDvmxjnjgTjMXvzIggSmAGma/S0rSb+G2PTGeEONCRwfQs1ovV8R3aSPujPZTYozwMtoMI/J4VIxePNKPMFZoT4wvHoOIyN1nnnnLxd2MK9B1lTr6rjFkrnb2fzKYaFaRw3PmFk8hGTwEBWjCHL7yk+mBhH+zRz3Qde9hj39ewl7fO3u+JH8Z/YnxjjDiKvfej32FZlWhvIb2ZZH2Wry3kv3RMWhCcwu8E+OOMEaXk2R6OqalC9WAMGXdWq9O+aYYZNZ7byFfppQ7j12QkRU+c9VrQM9Fy0faPnO/zp4xXcpjf3livBOMePRrFr8k6TG81gUflXVW8UzGjLZHv4txjbwzeR4Zo8dzFW9FthPjTjB0X/mt5rUbAHOr43w7QVy3klGrNJttZlKQgs4NGJBkGPIciOLRsZq92CbtsoC04I77dSdc6+I9MR4YQxR6NkqPo4YsPSqAS5I/ivcwIl4WMgsjo+mNikYYUbnthtHI65EwkMfo/c9oZ4OuE+OeMHChWmIdo7WqC8PQuk7mq+OcOFHfta2Wd8cyV/jo+kZ6yNPpgQwvschxZfps8d8wRLMeRwXGI/uNjt5Z9jvG95n1iyfGO8HYWRS3E38r2l65Xrgl3nvEuBbvUb43J0YeJyKwRktiW0p6nOtOaN1COgqWa7SeRYkWT5xNAQz3g8esZN5bF7pJVlzQFyK7zgoG5hxKl6PVYpvf+nc8yz8xngzjAn8YMiu2R3Pp0Mx49OJZWKHN0m+B8Snqcc8Y18iz8504Me4Pwy8wq0oX96MThVXwWDaY224FO/BXWllQB5PiushMeIT55+2pgLiwjvrPTpGj9R8X+5VQ1wysMHFhKrUyR720QqN+dyes9N8nxjvAmN2HvgO+2un0XAm7FctcFTF9JOOM77UN/8wYK8qg1+6r7/zEuAcMcV9HX3hYuOY+g7vaRXsL3ibxTHHnShQLdeIDMsdfVsXPiEOdODv3lmIboQuCiNb6XaK2n+uVuea7c2I8CUbP5Z4pxZ7Zj+kjZToruxreyuU8o3vvGDvvCr+It3RPnRifCiO4yGNe4zpvizYL0ZBfV5lKXrIgrSkPire7Lz0Dg7R0PcBExhbHKJu1AnGuoLoroE13fmu775zID95OjCfHEFdcHAVkShrjlxCPIfLMykX6jO/M0t+R7RqMEY8ZLSXpj4gxes+rsp0Yj4VxOI1BwTGZq7uZjg5bu3rWNiXpwYOtx8c6/iPXfnSlc0jrKHolCeX3XPnetU7EVIipFK57zuszkf/kKPQZznCbMHK546j+lorhWh44svkUGLNyK7RZGz4KRlZOaOV5FaNHe2LcKYZbrS7Wa1DcMey606NLOzOkibyLPc7fi5wFMpnyRXSprHFuv+Rxr/QBHEc1YSHfHJyI5oMuCTP3aww7A7sT40kwVla5xw7/1mEFA/OvddNfg7GChbQZRuw4HwVjVO4WLvlZuRPjC8Lo6SJ0c+NzCXHNo3aX1tBVf43R2mGO09TZXvUsxCkCTxpHHOynHnBQoaSFCqxvT7wVu33ZW/bDJ8YTYFzgjwaflND14tfQzjCizLsYsfwqxggvo302jFhuh3b0DkaynRhfMEZczI2L3RiUJx7PWlChxfIhRL0of3Eh+dafeBGC+7wZJPQYSN2Kry+61Y9jcI+KcylKj979eGJdG3dL5OK72LHiRrTX5p0YD47xjPeh30O5Z8G4Z9lOjLfDSF3gkOUizrLtlItpUdH2rHaX3imjmAtz70NveGKBHzH2y9h6zGHBm7fLOSnFRK31teKNWaG9Nu/EeHCMHctuJVw72nir8Ckwnj3MLMJrvQA7VueJ8Qkx1MrszJnjBSa9xW0xTXkT8K5/pXjrOLnA5Mgq9ofl4+I9X8gLwoDRuiIqlzraYOLGCj/SQ23jwjrKQlw90PNfnOEM1wc8+vWF1twBL4N4pO0p1Iy2xzeWibKuyDMr18MYlVuhzcIjY/ToKaHthVm5E+OLxih+ahqD7NGWhXJ6L7jMJ0seJVa58KB2Lh2t7VFw95BHi31q4ntgv+YNiGolDxzWNKZSMdjzkigKBsw5VBbqGfuq2e8Vy/TCrD88MZ4Yo+dyz5534jPXQY92xf2wU24m2wzjWryd+j8Kxi1pT4x7x0D3dbQ+cdK4fqKb2+nPuCKMk+JB2WXWbsazca3PVpdHeicgZouD3Za0FaeRS9XlWFkc3ZSGdWfB30p/O6Lphd0+/cR4EowL/PXCNe6+Hs9d9+Is/1raWblrw4zHs2B8CtoT44vCAC0ard7oVo8PTsniQrfRoreYV6jrXnc40ce+Mnmv6cG1XoVlFByWscm57CzmdW0Y1rkHKWn/UADbh14HAkf6LX6rEnb6uhPjSTGyfehivr9kBcJndBWMAHujjNmAYVaup5xfEtpVjMxFEkOs++ylPTLGyyAeZZnRrvI9Mb5YDGdVY1zd6oXyleQ9f30WBrRxjRqGsouh0TD5T2J91zgeFwc5pSlz/OfSg5v9aKaiWeZ5d0vs4u9y9T1n8VUlcmI8KUZ2Hzo+j1wFWXrPZbBKu+Ja2KG9FmOH/r1grLqNVnBPjHvHCG7tdC934nJXxzSH5xhmlnXIKiBDxJgHTpR6HK0calby/Ep1Cdmsv7Fg9ukMGBxUuuXd5J1HHivG1onxhBiZ1R0/d+MxbcRvlbYXVjFWaHt8s/Qdvs+EscM3K0ed/BPjvjBU3+Gd5M2lKOyVbFzHTeG5sXZ7K87bhePEUIYT+tmKdZw7kFX08fMgK3KKa/Wsl/B5xHUrQJ1PJy4gQhmKVrhroV/Th43iJ8Y7w8hc7qsCjAT7ommv5bHbSd5ShnvG2JFhhHViPBIGKPV4/DhTouBjaL3bIzLHv4TnnnGc5ccV62qPxxFHs7ou5KNchU15g6VtpN3J+jzqyW/d982eT4wnxei53C+QfgmfSLPrWujlZ7S9cteETP4Rxg7erE7X1vmeMCTMMHqKZKfcifHFYzQu925I5rLdQrpkUZ1XhxMcma8n0v3mWhaZND54PA4G3eBIVqgwHAGTjDx0Lpwtk2OFdXTjXfAqbVxkwETFGuk1/VovXNsHnBgPjoH70HtEmWDZKKGn7DG/NzDIeGV8Mxlm8dlgJZN9RrsyOIifj4yBz70vZu87lNGeGA+AMVLm6j6OlmykSXSffnpDehqURlzkaJHLPLak6/R1qemlHUEUIi6m8oVcnmXQ4JV5OxgpRbaxWWEx6o8yxZfxPGe/zdhHjd4rhl4ffGI8McbHUeYik1H51Q7mtTgzjGuwsXF7GFGpxhAHP4+EsdKWs3InxgNibF2SskGbudY1jPzyOPkOrn/vWoePMJJoBwslwQuKXZ6aQUppqbkd2LiV88gPiXxY+c3v9mOj8ifGE2JElzt2/jujgzjafxnkRX492lW3xIj/S0IzwxjVJWL0ZHwWjFl54bH6rma0J8adYKwodXWfZ6vcO2Go1JcDQ2xhiXwmVXSTRzoOebGCxWeV6FoH69wvJqh0NgLYcb9e8153vg8nxoNjZC73a0b8K5ZEBI/xVUszw8gUU8Z3x5rNBjnUSX92jFEcMW9Je2J8sRhEZHPX5j5OQmbwYmgN6flKuaSsv4f8UIq2H70qTqdTj41oHh2Vq2lpBkXeLnnjWseDrjhlfuQzDB5wXt4aThR55WliZQZO9tveTR/1ySfGk2Lcy33oWXyFfpXHazBeBmkr+c+CcYty1/A9Mb4gDNVb0e3MISkatrWMo3mNRe7ORgfzmCMolumNGKoCds51WDBXBff5RzmbU0degYzQKi+VF9vAwi8e6P2Gb5U+CifGE2Jc4I8Gn5TQ9eK7tL1yIzk+FcYIb0S7w/c9YVBCe2LcHwYeSe50abxlDbJswVtU5ligTP4ajhzK1k1idUEbe8q62AwsbgKa4uX0AkmsUCkFjp4tfr96nR+XZW5asrLh5I9KUVmplqqL4nrvYjdEPiNr8MR4Yoz3sA/9U9DOeNxC9i8SY4dvFnbKnRj3gLGxcE0sV6d/OZThEMcyjlcYDYB7Hct1V8XLIARGIaVqWob8qzwGSRmx6jkMDFx1wyBIfAQ17HTwPVdrxudaJXJiPDDGyj70twqXN+b/mnCNbLv0j4bRS88wei7emTwnxj1gZBZ2pqA72fG60DQ0g4Ow0K0pb2nq8sdT4LilA5+BcUG6MLBQu95hc0sfZQ243OQhdmzIN+kD8L2+VT9zYtwhRrTGslHFZTNOSXyWdi3fFX6RdgVjReZR/FkwIt4sXCvPiXFfGF4XckiPiroqWT0ylcQ1bekYJzLaDKCUYi5u+eRSj0wVxzjk15L2XO8yh9VrAqXbzjjhUaq7HZzqWr+mufze8wJ0BVPDzIEdCvuaRQVnOEMeRi73HSW6Um61fC9+a3lWMF6S9B2MFdpHwLhG4ezwPTHuDEN1oaw/k4wNV3wTwPXcrFiv89AQ7bgJApi62NXMTmQtVKBsyWR2/nGrtM4ktKY7AWSD0cWh6gloD5a5dVjpL06MJ8OYrXIX8FXX34w28o3l7zFc4/a8Jc29YJzhPYWqm9BLPFTqO4zVJe9XmxfR5FV5oss6LEFrVCdrjvDNZI0DgsxSLmlUTpqT61UFQc65Ny+/HTjLSADsJjetneEMV4eP5BXrJfmUEOmy+FvRRitzRpvV5xqMEd6KPBgeGeO17+bEeDCMTCGWJkKp0ezyNArzzvEy82rKNoMHtIpR9+pcNazEC4rarXNHwZnkNFjAKoTcfJA8di785iAZxQoWusIW80pYmL1PDCvpPZoT451gRAv9pfO5G38r2k+NscOjl0+d9EfD+BRtdWLcAYaqSCanZHuhf1Icd5U6kjQPGajT9n5lnqlz9iyEKmIoDTv5uQCxrqpPFgyQr6+vYx2aqBuBE72vnomVd0ib6T2aE+MdYFwoHwFkljnGY1ovfZXvLOyW2+E9K/NW9XhEjFUeO9+JE+PeMKJSLPbX3F1OZPeTE6i7uhmdC5P8cyvYlHvQhogJn1zMQhY8XE7HzHZFecOwXdWm18FypB8tCLCGsUWAhuHW4YksWE1JsGNlr+2n3qqfPTEeHAOPfn2Bz5Egl1Cmlx/TX5L8XUWV8XghjxHlyMrMMGLdMn698s+C0WvXVR4z+SLfE+OeMFodqKFxvQeL98izeWN1cUPQaXRlwzAoYFhQxuqyRte7Wsg4HihmbcPUNciI2rvJBIkmYbgIkMMAIQoqLvyGyeg9x/fa+y7M3v+J8eQY17rcI9AorLofVkPG4xZyzvjtujufAWNXntVy1/I9MT4hRle14dS1UAbXejuTjCq8plTNy3VVWeHi5tf9SvjczW3DhoNhe7Z6ZGDDCOdij6HR9/16HKl+kp/dBSz5zDxd93tf6Ztf8505MR4Y4wJ/1PncjdMg3sMaeQJ2429Fu1Ou56V4NIzX0J4Yj4tBRN6z7v7UmDatHt3qLCvWo6sbfOl+a1yxqfGCOrSoPmz2ulPpyFia/IPBIZMeyaqVPNIbm1kn1rMQ5gSkCNKja56K249f69T7DWd5MYzyR3xOjCfGyPahz8IK3Xbn0clfqfxrld1bKcYLedfIWyjUT4FBnbQYn3kOToxHwsh85BqN5mtpV3eDwXpY1MWxzdVh7ggnljVqlQe60wvkszmynWc9GNeI2bruQc4C+b52R9lmMZxl40m1bQXdlryV33AvxPwRnxPjHWD0jn6lJF0K4mdGN+I3w1ihvYT4qDzSXitPhrHDN6N5FozId+QaWnlfJ8a9YHCikECDMWhKVLCNM7rRrNnKN8yfTHN34nKsKsd7zKmE415zi5vJz8f3IX097MAZ9FWUpJxN4x9iKU32jl4T4nvNvg8nxpNirC6KQ0VKoUyMx/yeAu7l9/BWFXdPSY3wIsaO8hvVKQuPiDH6UmZ8Z+9jRPsUGF//hT/9wx8+lD9M9PJj1H1XMBEcp2gd2cJCrQ49w/99EXz+N//hr/3zn//e7+7j+ontHPXlhb77nc/ou9/+FrFreVGKxStWWVVHvllKauOL294rVFO/3qfvZ71bn7vdpo7mtskpj34IEecNQh2LpyL/3XhJ0mJ6byCW9c8nxjvDWL1tbcRkVD6L9/JnGLEjHmGs4MzSVurRexmj8IgYM9rXtvtTYHz9F/71r3z48OHPEtG/R4X+GBFf4mpmhn1M6KZVxQMdPrO/lXsYZw7pvcFCTRgo66/+gT/oE4aKPSwOy8zzZJDCLy/02df/P/rWb/wj+vbv/LYudBvYz520usCtk+vVfSMupB9+e4fCAUPWufW8EYFnbHrvhUhLrvSHq/10L5wYT4yBCn3VMl+1nnuWUDbSiLxf62qMPGJ8htHL76XHtBVXyiNjxO/KqmX/tBjf/Nt/6meJyl+lQj99KGOi3D5mVQz+fHFRtL4EKvVROIox+TVZidJw/DO/+gDB6zc/wRwnlJOybj66FPrSD/4QffkHf4g++52v09d/7Zfpu599uy3rNnIn9RAtDTKpFxySD6q8skxcPeDZkbHm028GB8lnZqv7dI65K7/j3bDa354YT4YxWxQ3Gxlk+S+d9MY9sCBgL4xczhFzZH2OMGZ5mTJYGfw8E8aq9yDDyXg9HMa3/s+fo+9+/tl/RqX8FSK+mGlYbMo2urVLE6Foy2lqad3NqqZQySQKtbiVXYlClKvGAttkAzeZu5idFtMDWlD+ZgRS6wB8iyrkQl/6vh+gH/4jP0O//cu/RJ998xvBSk7EyqfeA5oUStJHYWRy9xhl7oFK515LsXrAGsJVy272O49h5mE6Md2PO+oAACAASURBVJ4QY3Y5y4plc03+LXisyDay2lYwVrDfO8aMNovvfq/uFuPlu9/5Ty+X8l+LJW260yy748NP2g4NY2biutLMz/0CSeCvaY0uRo3CjZLrKiOkRSs4KdScgh7LRje8DCbYaMuHD/S1f/aP0G/93b9D3/ndb05kLNgCrfFb4zrECG0+cpUrYUnPXnflHZ+syoBbiJpFdzXs/HZXaV9jEZ4YD4xxqZFoUePnbhw/Y/6IJsu/lvZTYNybPG+BEcvt0D49xjd+8U//cSL+b2ylc4GFVNV0ZVModss2xuCPjbiAQrJlWAyzxZW/aIpaQI5mbXgT2V3fpdT5YvlsDVCjxTQxx6EEU5ULP0F2NvlxKXxhqyDOYf/gH/rDdLl89HwKHQOcUKECn6Vgexan5AvSaJmCVrJraf1w/EnbyhHJq7BGhj3uJex3h3IvS/6CM5xhK6wuiuuZ/SN3QMzb6Vyzcj1+13bgK7wyV+wtlMSjYfR43VL2h8L4nf/jT30shf56KeVIY7EZ0WJG16pXFq1bW7RGYsY18+js/sdBBFqjaliDtxw94wx8ci8y1MW51SHPFfRKzg8S0L3PZI/saC8fv4e++vt/gn7nH/xqIlXr99Z6hfyC+QkPVx9nVhcX7yDq/zrgQDFcXUvzWsPSu1Ef+pqw0u+dGE+G0duHfumk0yR9NV8wrnH3z2S7FcbMdSt5M4yeHI+GMXLJZ+Vm8mT5D4Nx+Vj+jVLoX8BV60SHa10PWcHJUomzV5KiGMzIA8UfdDuDVevczYXCZG2VpSBNaV3yjpMBqrvY8c1c0KlP3cnQrUzmoq/he3/kR+mb/+//Qy+ffw5lsyHHUSdTsUbHpU4EoG4l2ZPOVh/VyDKowiZhItzXzlGWtt7+NnQbakWMmnrtVNkZzpCGaHmMrPPofszisUyWn9H2eI3kWpEtWyR1K4xV2iz/UTBG5WbvcSbPimz3jPHvMFzZZfFq+TbXbBHZnLgck8rHbWTqMme9nUxpmepNYuzY2ZGi5Cx48/aKW99OcXMea2Y7RpUPHp6vKP9Ss8IcgPrSE2UuQRfdsQGH9jCXArjJqdCXv/bDSimGs7eC0cNQgJZdOsLEV1KoHseK3nz2ceEiHobD/c5AWLELNbfAscgm+JJmTTnqN3th1Het/MZPjCfGmLncdzr+Wd6sA96t6KzTRaX+msZcwViR59EwdnmPyu9+F+4a4zf/95+9EPEfR8XkXLBMRAUUJjAq1VpOQ+ZaD15hpKVIW2VA17bcQIY8DmdBNPUrvfCAtFzc0pFBLGTxO1Rr2clQH9QX7Y5CJWKiL33/99Pv/sY/blzeHvGQoZTjhDhZ1X/o4YGHAF3/Ma0Zn0hZlNwT226CUFgGRs5TUqNGutIXjvJ7HXwv7cR4Yoydo1976ZeE7har+F7j1o8yvaZ+K67qGd2jYtx6pf1TYHzPV3/fTxJ992vybIfBsJuvNod0tX6L3CYWgug3osatzerEZeCHxrE8eaWVDwBMs7DTM4Gavfryh5mSL8tRPi+D+1+mAoKT3OS2sh++/JUjBfVp5eHd2qQXorgjXpU8+i4w3h9YxdaJtH5Puw3nbIE/YDC8N9+21/Z9s5D1ySfGO8AYme/y2RsZjCyg6GIYuR4uyV9M71VgxDeLr2LM6jyT6RkwVmmvLfewGPzdz7/mqMFVLMpHFJift+aGFj3XqiTUdVsVSzN9XJffFVOHeNOZYDHQijXcHmWOlnExrSNykPgdcCZaQPHe8gLxQ2HFVe9+pblMNVgNMFw+flTxHDquTpfV+k2djhI6X45uf2Bqh/uEelEJixlL4vKXfQq1ENtgzA1SKtN2yFKI8v4php3v6yzvxHhyjJ370ONzRjNKW6HtYWXpuxbYjjX22jo9C8aul+O9YLQ/JrWWyRQJ0XHHt3TjYm4yOpnj3WViwnlloVHn7Q1WJzNgoaLGPdvRgvbyHjJXSRJngi3sCgOVhH+HAcQ8ZkPNSJV4HzjmAE9JLEbn9scnbYLekywm7Hx9LSJ+CrTtg0Wu77e+x9d4EUc0O33HifFEGDNLO6b18ndGGTuW0rXhlryvHUG9F4zZ9+MWeHeFYYoQFqthLpiUZoViSenYGU5aI7V4DwOWkc1h7ZZo7ZqVqdYwQ77+C1ZurEvlQ+HPXYlaBZUjUolszGFKjn084SlCiuITmdEPgBY31tPkaiuji96isZ+8nib4hoZ3Z89MATLg6HWpUFbd7IEcLpB5qz5w5/dyYjwRRrxtjcLzSJBYZrVcKkgoF3lIWoaR0WYyrpSLaWOrzPN6Dxi9/Oz7E8tlA7mHxRBFXiQOlnMpZv2hgWjBu7QtFH8hC4tlV7zRTkZg1io55SNySLqXITh+YxyWgzs3tIptVrBYyikfVWVCzqAlxZqu1n5P00JDiiypvs5GK45gkjYoXmI8and4ndnR8xGu+MSsz5Sw892N9BhOjHeCseNyfysX57XuiF3XxWq5nrvkWtpnxMD8S0K/Qjvie+8YR2CvRdWp6vYuG63v2EWdFYgLqe1ltwVg3mNcYAucYnPlB0vKcQ4/boUvqIGKzTk37uxq7etgI8wLC73UJ7qr46SCb4hEA2IbFXL1V0QObZbEkSOMbVK0Ft04MBCAh93XKipwtrbLFtzX93ttH4bx0Xf9xHhnGBf4o87nbpwG8V7aKu21GLeg3Sl3bfvcG0aPthdm8mT8HxdDV62zcws3Kk00caG675x0Lhy3X+NJc4cyYHKLx4opR/c/+OJtHtjvx87UJkuenlseNA/4tmXRHReuUw3CRGQI+AXrhr5r0NCaxZ4G+MqYQ1erg4jO9R4vmoFKxrvOOaFvj4+VsvhX7D0HFrpEzjVhsSoWz6OG3ndx5Ts6Cr3f8onx5Bijfei7wK9R6qu0LwPaXrlMxmvlubVsj4KRlV9JX8V9KAzcquVmSBk6eDblS0ch0vPT1X/OiflGoGiKL587b5t0f0wrqHPTPmCtRotZuRykzrWc+ZGDohXe7KVTLBjIaGm/0s9NCPipAtSgxSUj04LJ2JZu8BQUfawPqRXt64XvKLxeUq8KuuatfWxLoyv88ErkxLgfjNHRr5lZ30v/lOFavE8h5zNj9HBn34mXCe3DYbDqQOj81SUbHev2vxbGJA75xrGTjsxBUSufqlSY1b3uFWvjAId8dvrPxMOb5LjVgVDe3YTGyJnSUujCdmOkWgcLRyb+3wutyz24z5Wu4w/HeGDWzKbgQCC822NgEwu4Sn7qvvMMTx7ioriemzLmZemo8GcjjRltlo6WY4Y7kgdlvhVGpH0PGBktQVoPgwb0D4zhrVunKosoSLDampPE2PzGYtaqYmiOe8GCDgO1jChd+GiVkOfSUfDBck+2u7UJ1W8hp7ZVM9XGGmweCrIBhDNkY4ULXj3jLXBmyGOvjDmew14O5u5sdQNxZSO+ehb4eDc2WLEaFORVOHhJbBAiZY+b69I+MA5OMS37Pcf03nf8xHgHGJnLPXveia+4DWY0Wf6t5XktRlQGK/V+VIysLXfjo7SHwijklTPs/oY0VDytZ/dwB0e3sV2AEt3VXqUZX+/DZlEU3uANXoBWdSUDjUhTcPleqGigxa1tUDVnsWflqi70bMEL0R6yh6ZwUpNg8fcN+5EnhJuxDQqdDbicq1/Fjxy05KjfxbRssD3q70a/kRPjSTFQoa+OKFatvFno8ejRXouxWu5aDAm9ekRl+WgYo+9EDwPfbca/x+MhMJjAElZFwo3+sG1nYG+LK7wy0tXsznoHbomZzrq6Ho6DxandVutruaiAMgc46uN2qGJpOGAIjupc+Qdaory90Mtg1nbDikgO7dE2JJLLUhKhg4Sej1rhXfoCybnfpOHnAkwW+Oyd3+db9HsnxhNhfOxkZPEps0m56GaItJcOba9Cq7Jdi7HDv4eB4RExMgXXU4Y9GeKAcEWJPgCGtw6LLsgKXT7qCTHdTAep4vIqIlruVR1wPFXdG58uLeGLt66ZauooyypkibPuLI51X6XmCFWyNnEDE7G0o5cbBhuN/k7lK61e7VnNIwM8FnBVbRX3RJUPsTjPjt9dorZvyuKzEPvxE+MdYGQud2HQU+yzeA98pMxH6b1O+rVhR/Ys7DT0o2Jc084r7XrNoPHuMNwOrKqUvMVZ54wLGPNFrNowR24GvLnNe35eLZCE9LjVTpkBrVPkqXUs4gQaZ31mfnWLHzfBcVCirG1kpK0ajVY+srZpBuDD/n3pCbbKxO6kBwfITUIygRGZr3x3d/uCGE6Md4ARV7lnFkpm4URBZm7NjN+s3Ch9ZTST0a9i9GRbwZ6Ve0QMgrxR/Bp5HhHDBTfvjRPmoh1AwWF2XGimSkhpwO1crVxduV7QpV2cRS4DCTbOwMurF3YjDW51JwOPxGzWdX3i/ofz6l3d4DPKoU1RIE6HBuZCTcnI2JR4nJuwenr5cc84TnYXl4TsrAUhsRlVgOdCDuqpPnapR2G53lVpR31rDKu0vd/AifHkGLjKnQbx2Bn2lHQEGD33MGJnOgsjSyxT3qsYPWUws/x2RlSPgpF9D3b5rvB7DAx+6cyTwpy4JohOxMNYCH3VNY2d3vXKA09os8+iihxGAiRHnLAqld41qMoDxCJ8igoyufoVbyUr4lQOJrOeNaP1g8FH4B30oq9wmhwHGiJ+qc0bpgc0P0ZH7vXgJ2hervf1M/kBCpFUL/U3XDPoXgmvHdifGA+IEY9+jaGXN7NwVkYVM9pbYvToZxgznJj3zBirZVfodvjfKYZYqN7KliAu69aoZdRp4XIyr2UaBUuoFC0VZ7kPC15UlI0g2ljHOw5HvhaMk69ncbHg3/bVbT0SWjdOigWzt1G8jeQ108/1M7UkzcQ9DKLaa2WDp6Fa2g1TNPChnLwBO6KXtC1A1/d+d9f8hnvhxHhHGBf4o+Qzps3Se2mrtDO+K7LtWm9vgTGr86NgxHI7tM+MQURUT0ODf8U+xaoudChGvT2tGuX4CRz11jBVMKUCCTc3AKBq+ReSs1cZNKgc56pqEw8+CQMGoWSRnOk4Ehbcz0z1PvV6W5ovU/+K0Jr8TEDPWDIoUnVDBKu7Jvnb5Qjat6bVfHF8aBPqs6+xyNkqc2mR+AiNhp9hUIbH4jYDJhWsEO1ZXzuh970+MZ4cY7QPHdNiXreTo70Os1euhzVzja7yGmGspI/Cs2Ds0l9L+7gYxWxX57hWvQlXq4A7Fk4DdZZ6AZe2tyXj+W7kNKa3Ccnf2KbQxa70jPd+gxWth9oWs/xNXq9o0doUj7KmVU9BuuNMmoQDo2Zvf/EDnoZRKN9LizKwySpxWwsQK5UH9+6E3HkjOrKpla6J0q/J924WX8mnTvzEeHKM3tGvO+7wlfRRuDXGTrlb8Npx6z8axrUy3IL2rjGwv/ZKvKr4qAxAczJOsIJmYKclgstXCOA811bnoAUZdovXcqbjQGux+BMsB2M9vaZGKyhCLuRxuJGQZC9+w7wxZ+usf1wxF8+0lXqiCx3S3Cltzsfu29oGLCEfMfDyGarDKQ5tWepJcFz0CN7D+1LXNRDhAr6d39o1tCfGO8KIllv2uRvv5V82aLNytFmONsr1yo/KxfxnxIjlsnxK0nsYlOQ/LkY9CtTpXTarXfzB6oomCq5a89eiG1mUg3MbE/nLQkyvHJ/VGj7ikmfWdnZLm2KVQ1Ghx1sHART0ZgwF8zkcb8vmPa9tIa5x56YGXu5WFyJntaNMrVDsPnxZrC+7T3TFq+ve/CpBHGs9eXUyYGH8HlS3u7Y50MX3DmHne3ltODGeHOOLuA/9skg7syrfQrYs7ZajqUfD2MHbwdiV7d4wapBO2tvrMdt6ejva1S7oFp8vpIkq4JSZPWVnw0dfs8AXe+YkTVGZwMeOnoN+cIvR4lY8ocgscRW3ctAj9AKdZMnhPd4YJ2t3X3/GPX7k5VI1Hhc1hgl1ew+9bYCA0TRU0fo16Uf5a/u+nXBivCOMzAIm6ls2PesvK9cLmYCzciuW5DW0J8Z1GCvYt+R7Xxiycg1VWTFdkK0pV4vNmd1MbhDAIVLvQ1czsRrTYuk6WYI1apz84KBwAUuezWJ0J7WhNelFlroeHwdBQTmKFiOMCZfikk1unbqIjeEvHQ/NhR4EdumKX6xYQQbo0UA+2sbyBwwI26jUV2PWvfCSe9UdPVj9x7ipEN3muzrjc2K8I4zeSXGjQiPlH59fAt9IG9MyvNkAIOL1+Kxi4KAl4zejfRaM7D323mdPthFG77vwEBjOGa0WoPlnveVIfnGXpVbiqMhQg2VWOJQGxvnCOVMkzDYHjAjmFzc7FL3biletenSrF+bDEgZacfP3+GK1jjnlY2Dh7pDP5t7bJoC8QjZ88e2XOzpwU1/Grx1fmeBH43jcUD7Uf+LkIGq/a/g9nXk5V8OJ8eQYO4viekCzSuy4hlfcDjt4Wfpu/kjmlXZ7ZIwZ7Y5b+6kw1F3beHtNY3m3sBz0gmoAiofT3YJTl3BJF+4VzwLsgj7c2QWlsPIoD9YBT6zTIKY1Iw8bkHhZUTgok2g3nYPuKHJdYFiQj4HkLcHwLqysx2+9AcgtzpvHNkcvTMbDUcl/paYUak+12/ud7/bBJ8Y7wbiEzyy9Z6X3yo54j/iN4r20GcaKS3mVdofXs2DsvOfXyPNoGESE3uBqtYG2Ua81rKrKnMvmLY+7pI1vdmtZ5oo2pVrgspiiC+bi/m1xs0fvMrr3dd+30DbWqjKDGrJ7tikD5/+GmkojID8QhI75DCaZ1yjHHnknZHVqu83oVlY/uXi+yV+Bz+yMgSZeQjp5XJY/LvZuklP3OqH3fb1lODGeBGPkct/t+DMX52zAEN2dM4zV/J1ykXZU/175XTkfFeOtFO7DYagtbf5VEotMdJdQ6mezOAr92oyp/pS2xlImdVM3etXRcZuo8o4VCnoCUC7hK/HSlMr4Wh3NcDblb44Oc78jaOv6TvSheBcCnbO33cAqUATnAT6XQKdpSuNtehOyfkR3TCGkX+m8e/3rrMyJ8c4weke/7swFoPLYnUO4tsxbh09Rj2fBeJfBXNXejR6cyy4ULNf6pr2bWGjB8o46Q+eeoZgcQoNDDFuixaqIwlggyIm71IXYphGEM3lxhdpx1SoWwe25sCOzo+LNIThSR1wLgPUJgxuG+qBSjYOE+Cpw0qP1nGTtxp4XVAMLRd1Oe7+3Vdo4oD8x3gmGuCKjBdJzVWbxrNwqj11eo/xb8JjRXlNuV557w5iFazF2wr1hHIHJ3NbBNIzeZVlR3jh4lQ7d2kJbmm3ZiC35xPW42eoTL0YAgwxb1Y3eaKGxI1VNUeIwBS3qUsz93nVaMzifC9W6gYu/FPCWR9c1NC/8qSc7vAJV0qA4tQxDOpZVAguuTYLnXh0p3tj3ggCNe//Bk1Hg/xB2vse3/L2eGE+Ckbncd5hm6bdWPpgW3chRlmvwRhirbusZRsx/BIwsj8i7gVanZ3oYPZfSY2Co1SmPYNVFQ7xgbk0PFrna1oFWQ2pOt6pXmUf6rlfYu7kbmzh122fCIBlP6HI3tTuohaRNU4DGuREfMs9GyarUFtWnRhF7B4MvxC1dOk3gB3+rv7/RlOYOnxPjiTF6LvesM5ytqu6Fyw1oYn6kjfkZ/Q5GhjVTkiOMS5J/7xixPIbeisuVNn54jPLyHaIPHwgvQsGAjlq3iFw7/mSZG8/cvFUBRh92gxzSUW/GeCwPq/Z1hX4xb4GunmeTqVQTXxVwcK2X4Fr30o2UfVDsbocAnG3vtHbqCO/AZPTNkKvFiAfRAJnVXajrEC344OUI2Boe2sV7YtwXxkfKrRckivHYUWbKZmT59GhHGCPZYkNFfpnyn2GMlN5KA8+sw0fBQNrZoOLa9/iwGOI6xctQDte2OFu57eV7x64Fq7JRRHKzik7CgqnoTikz175zL0P8yItDhuJipR5647bSobVZqtDR4sVteeGUNtgR78ZBbtDD5I64RV9FSf/npu3A1xGseDlHPfO12zvSS2HYeAET49a4YSTdgIv7L3hSLPS+mxKPtNShG/2uT4x3gIEu91HIOrlRfJR2Ld+R0lqVYQfjlrTPhHGNPLvYj4FRO25UHO52NSawer1bOwanNJzSrRwLLFRzc7LgekYjvohStflfdu79KE70NiSu9cxPXRA8ZMGksivK3qp3ZVKPhyjJ4tNqAV8rEaskqaRl0pyqeEt1EOiwQ6+pq2lFvBTB7Q8GPdYdMWC4I4mrv8Ns4D76vl/zWz8xHhwDFXo2kphZ3XGEkI0wsnIR040yktDDyGSLvK7F6Fn+WZ1HbdJLfwSMXshwe+Vm349HxGjd5k6B2rYuubzFQt8d7pW6ZURbmsivY08HCkxwFC05C94tElN3sT9vXQcPUlYUJ8uNYeYhwIkCd5lrCaoLxdPirYpLZtZde/R8DG2xSJehYE1DWjY10uCFaZK6x/w4d6eYN4UNQ+mOsOop26Hd+S2fGE+E0duHHjv/rHDDrMNrVA7ToqLvYY949eTJyvQwZrizgPV5obx+j4IxGjRJPMObKdXsPTwghpzu1lqxza1j6tIurTpiUdFViRTTBcoSdYLyRJcuqCbnJGDwzrO67fGQOztTvjPYQBe4ChPdx1H1CQjwDSRMXOtZyP53BCCDJLWIYr3bzfTmCjdrGVsz1LOJluwDXPNeiYv0Rb0cRT0qODoR2iDBbNCd0YzCbIB+YjwxxmwfembprsSvpc1kuLVsM4yYdi3es2CslnvNO380DPVGtxacpXBQ6iVQuENUmGzPtYvD0a3Bta5JqDPNrDZyt7fd5MGxAS4yUy9AUFyhVGrBxiNRm/vQ8Txc8RCUKAsIKovqCtQf6qz6Mh4hS+bgtqNw/f56fR/c1g6VLrSeF7J6YBg+/Z73sG/f1bUQrX1H43OvX1ylPzGeGOMCf5R89tJielZ+Jb5L+9blIu2o3A7to2LEcju0z4xxWFrlcFXLHm5v7tV7teXmrYJeVlQ6dg+XWG9EpPO4MqcbbwSTB93vXAsXPEJVLOmKLV5gte4ZELVYKG8VsnK1fiKw7YEnEIhcwINvjj3qZHvsue7Br7KjdwPnsXEnux2Xa0fAsmuIUi+NsUbSsgRl0YzGo1tLegBsvWENjnCFz6O5S5WV9KhXfVnNW55aXteG3vf6xHhyjGxR3KgTjO6BmXC3rAi6ID4FxkpnvzJyelSMWyvGVXkeAgO3ZaFVp5anKqLM3SzK2Wx2W6dll4Liamkr1ehKxcHxAifE7XG07PJE0aEF6+e4xco0JWtuZuMcT48zbHNF+7EN+qWDzY+8OUlGL3uJfLwTvq01tY2ZNm6QFbwgtgugZeO+F4QDuibgd+0lPEua0MX87PnEeKcY0eU+MvtH6ZeQvuOGuIULeIbxGrxM4WHaM2NkYcRjZQCy+97uEwP3V8fzRiMpqEpz9Ya5d4IjWjko0MDaKymUQwgZpq+ZbOiAJYWvLOAiQq+20aNa9BZ+s8IdXPfZCvaO497c7GEQIm2LsrDAohyxTXQ6AtomyBRywifKlqW1D+ZZZ3w5zp1/1M1VdsXdmqXP6Ff6yxPjCTEu8EedzxjvlZmVy+KfCiMrt4JBIa2XviPbI2FEvFFaDyPSrPK7awz1MItrHfJaI7NSVHetWncMTmPxaDs3NLjTEZhqeefiJ2NARLndCLho7QpAQUVe/0AhRatTdKrz8gNPf7wr1SNj4fhXqJ8ePVsiM3Sz17mDcsSZHbc65y8ub0vHW9aYDlf84TAAGn2LSVxuc8Mb3Qj4Ab37ZHJl/S1wRNT/3mZ5MYxor807MR4co2eh71htr7UePwVGr9wM41q8W8h2Dxizcr1R47NjOOuxObUMLLNC+R3omsaovrxF3rhsK6ZSB8/AYb3iAjOwDh1fwY73r7OWiwOUuJpfxw9BlmbVPwXC5LE9Jxdlljx0IXgvQ2rtY0aBpiiBxgUghMN6mlmTBKNn67czLnECwIVVL9ku7YnxTjCildqjifGRdTQLu/QrMkTa12LM0ndGVUjz6BgzvivegWfAqKG1g+0GtKJWcLz0gwoe/VnU0kV7UazlApzF7iTmxgvAat6HZVhsljBa8KTPli4L+3Q+HRnBTSyOA/v72v08ccBLLHkDMsbOq6/P5rHQC3GSP8dajPPKyJ0nU+DiG9TO6Hpw9EHk1pHQhlKS5DoayE8MvPa7uxNOjCfGiIviLnRofvxcFWq3XEYbeazwmg1GrsG4AO0MYyQH8n40jJdJPOLiiDEqxF7eI2OQm0Oumqztwln0LCQJLWnH7hVLWx6eSK8yFTHqf+bOJzUCixLUfD2b/SBCW5dRflVmYE1G74DWqWhbePu8KAs9975XRxdPtGOJD2D6cq1JODc+UKbpqZ1MoWW0YNGclEmsn3egBPAmNRtE4nd0lh4tttUB/InxRBg7Lvde+ooLMwurGCsyvBXGCs5MnpX0e8XYfc87PB4Zgw4tgr35ET8u3ojKwhSDprOnaeLsV4Oje90veCOlcvvaiZ3H3YsCe6XRpd1VvMGNL94GrUPrMSASHc/Nc6bTi2yvYyIuZvWzur4zBSsNgslugiJgwcCkKlWWAUtyCI61f2kxhQ+yozoggnrKlItORdT61Prt/NZW49nzifFOMC7wR8lnjGfhWrctYl1jhc8s8x36mL/j1r1FWz0axgqP1/K9Zwy1CsV7eizSqlk1kauiO/Y7y5Gf5E6DZTJj7TCwD5NTaUEBmvvYu7md0nTu8WBtmzlLcZ7cWaGZ3mQYVKhsFpxXWhSaylFxu4Y3G2zj4AA1XX3oEUedCjLQKBAn8zrEu+VNZsCnQt6DYjIEocNj65sprrlsgAHLKK/9rs7CLX4PJ8YDYozuQ+8J8QLP0S0Q40tCJM8vnbyYvqLUe2VGGDM5I22vHj25Hg0jvvP4/lfl2uF7xxjR7iukJ4CpWWe3ceHZYP5YVrQnGa4Qr5YcaC7noeXkG6Gq1gAAIABJREFU+Nho8hORzvDH09ocLwrzAb566gMA3727NrY5q5683FV5eY8CgfyqUk0cZCUNBVYwjj20VEHVLfS1BAdSBex4MZJ2MMlcA1M4j9eVcz6CQl4OK5P1a1nYpYl93onxDjBG96GPXLQ7rtyd0OOL8lyDt+K26GGstM+qi+WRMa5xA8Ww4y6/YwxRFGDZMZlJFjt0eUaPruoaUwZdl3lQhuQeE1udQ06+AAugwmUvRMTRgocgylirA2J79WyDClGHrK51PziQqYpo+TNjovBqbGGQHRs51rsZLmhae5BOPJSmKKVe+sJSEjnKUb2QUi9nKXXEFo7W2enXVmniIP3EeCcYlxrJRhGU5GWWblZ+h7YX741MVsq9NUYv9HB7lvG9Y/Tit3wHj4hB6qB12qdVgWrYFosfO7CcrWnKJ1jYskddbEPZQ67PZPujLY39X7MnPO4Pt/q4rXCVjvCPotxWN61flalpLrGanXIWZS2u7mLtEcx23fONDRnaTN+D8Gz88dQGxlkBPIr3wJAivihSWTy9PCYmcPHfm70w++3eIpwYD4oxcrn3GO4oiRUlMupcMzfFSrleuKZT35XtkqRdi/dFYvRoZnyzMKJ9QIyqzEVX4KKtxP2M26d7t7B5bYHuXW75Oi8vd+IN0+a5vTjFaEp0JeujqS7HsjF8g9InSi9YKThfTXZYTnqDHQ524rQBhtCWjG3cKNKOks/4JUrY+x+ofYI2w8EP1G+1s+65b3th53t9YjwJhrjcY0ceGY7M/kzRRPoRj2td9jsYr8GJ9Zu11zW494px7Tu7xkX+UBiHkQldd8etjfOmdpgMm/sd3fRwO5fNv4vlK8e5FpI5dnFfO9pq/UbnMmoz79IWQMh3VfFpbS3B+c5xrOEc8+Buljp62gYT0vG+9vbwGmDkmYZPVLZhMENEfnrAt4fe1BbqYE8tv5ay/l/Mvqe9fmmVNvutnxjvAANdikTtaCDmZa7ISJfRZukzvj0eL5N8TO9ZmzOMmSXXS382jIi3Q3ttuUfA0P5bj20VDzB+kiiJ4+/wWMMcq7NqWxV8uIKDJvVL6b2mjXvD0bQtjbMcs8TDDp9yeAu68vEvHO4C0Mczuwwusuo9uKQZ6mBShXjj9ydCFz2H/DKU1NLYPktIP0SD42QlP85VwJ9NfcjRr/VmOTYMfV4LK7/VGe2J8Y4wrlnlfusOc0aLaS9J3oxHz20xa6C3rMejYbwV34fFcGfEgddWlTsR5VZbm34kmVvWnWgGSjmuWndqAT3H7oQyUU7oAveKtY40nKCpJZuMOapWDklt/WzuPAVpeKrBLYYye1JsGvRoZ6EpB+VLIEBXOZbr8dYyCUHTxBiMftbxZ/1Yr9zOb+DEeEIMVOg90/4yyIvg14YZRuS/44YQ+h2MFdqM7zNjXPv92KF9FAxTOPCsTlp3djs7AnG7FiUzDup952Mhm7roi/E1Tz2cFBdpGZ3GMIyISh2CHV3OqnxTxYzKtuuGrs9aP2wdGJTEEQlqcviUzW/x1rosJJ57QCgwj29cpP1SDHjRvVkVj2eu+jReGkYP7eI9Me4LIzv6FRnNLN7MpZ1Z0ZmQ0eIeYRO1DbGCEcOJsY7RK7fz/kcDqfj+HwojWlziTkcFr1u0XBlRaGJxc2ASmVKrfDPLtlEUrcorYpK6y1BspFFAi/pF6gCI29nkVLw4qhEZQUjml3AQW/GLCQnSRXbVp8EUx7gvbtZyobaNsA3sqda9aMpxWh1ZxYKlHdW1fqqnoEAevnX5MjjB4ne0t85l9F0mar+jWfzEeHKMzOWePe+4DmbKY4XmtfmRZkfObIDxHjFWys1kmMnzyBgW4mrx+j8X0CuqG9Tc9i5npxmOBGeFI0BRTj5frfMgDPqRkUerXDohDBaUpy3MQyHF8yADFrd2ENtERTIGBRlR7rZWSXA81HPfj0K05uOsQMgbDCu6aXGWofMQQ2+APvp+7n73T4wnxIgu997IYCe+Wy7ij/iu0l4r2+poKuZnGNHqe0SMHl+kI2p5ZGFVtkfAOEI8ChWsX/1f3eHgAgelnagpVfjGKbiYG+VfnCKPV5mGhfQqQ6mKWqxLdbnXOBr9pfLtOA0gIbjWKbrWob1qzZqqYwvqVALWEQ6CEURcYxDEKkXaoeicAcP7MGNc3OI1LjsLVF47/Q+rim+X7C2T+WRQrqKejRpe4DN+D0dxDL2+IMZPjCfH2LFesOBbh3vAeK0M2QjtkTAuC2VXFOCI70NiyFntRKa6uJ5MciyKZnJa1FESmHCgzAvpljOKCkA/619dTa0XqriV72TWZPE3gzk7mJOtX2EVurN+a0l3Zguxzkkbp5e2DmiFVwam+oqrWusq9y5rf0qcuczJNXfBBxdPtsc3PH35MBpRGUt4Pv7kyta2COwWKE0liVpLbmbhvbbvPjGeEEMs9JfBZzaCiKFXPotHfiujkYxmZUQzKzfDuBbvFrLdAwYt5G9jfPOX/vzHD1/5gT9ayoc/xkT/TCkfvuShvHV2u9BoqAltTsef/96PvHz7nyR8e0VGeGhZ1+eXz4g//wa9fPbbxC+fE1E7X9sayOx0jHFnVXrRMYBGqdqYjcsePQ4gsQ4izEy1I1zA81AwH5S6yobTCoN2kkEDNIL5IUCwAnS+CjoVoIhhJqFdr0Yqt2/TVDyIO9O9HZ8xHcfAXv8bHsXfiu+J8QAYotCjOzKa85TQIdOsPA3iWKYX33Ud9+KvwRjh3Yr2njFiuVdhfOvv/edfu3zPV/9jovIfEJWfIMq8sdb7NceHCkVdBU7E6homUAvGx/X8RqN+1OJ0j3XCyJcsLnrg41eofPxJXzZqkShvcL+qW1sGL+QViqxWf/nWP6LvfvNX6eU736BC3qp2ouP+LmkGsKxdvUvS7pkiD+3vKaRtwRuhyVbOr+RHcdqBAsqZ+im6+h5bAtcWVB8At0Wz1zU6+l2O6nEeAKKjrgEAB03yXlvZC1G/n31t6P0+T4wnx5jdh96L39Ka28VYzb81j7eivWeMm8n2e7/6X/1r5fLhb4gi96Fvmcn8c6OwtfdlOPzDW+CH+vOm2jGfStVKIshPev1UQvPtNkeZ6kCjtXSb08WMTairr97le3+cLt/74/Tdb/wqff47v2x0OFaJ45bgMehuXYv101X5fvCBV7f4JmZpCMuAuCq/MCIyEdi9NicZo0lOftAQB2gY5zjkwfcEt9bhYj74LrXjQtTUQaZaRj0rMc+d9idb/OSzEL1Nxx7DifGOMOK2NQm7Iwqh+RQNcoZPG2Zem2n49q/95f+Qyoe/Ss0c0ECRYzb6mwcOzyM7HMXp9oST66BZT1tL2TXKOgqnOgbMatkzLSHauFoltdAtp+iG8ygI0cfv+6epfPw++s5v/YIXrNG06NZOFF4WNMtb+X4gEAqAgm04a7ugtu7I0rR9q5Bj8ZXX1TSHRVUvx1Ni49dspNsbrNyZlMso4G8XHl4xnRjXYXykvguWIA874p6Le9UFHuM94bJ8lHGUH2ljHW4hw0r6I2Nk+SOXevqev/1rf/nfovLhrxuLcUfmdLjMN0pvS04l5gVRuVN023ulktj9jqrZyS3WVRS6mRrI9nEnIdtQXl3tmbP7w5d/iOiH/kX67Dd/0bWJM9Md7wQ7074lOailiBXZWpxUxCpHhnEQU5L549YUd6+tToPYuKa0TRvp4zihQHNAWu9ithIimF+QXxDYfV+Kip7LGYPR7Sykmv3ObxFOjAfHmLnceyOLW7vcZxhZ+q5sMzmvkWEl/ZExXuVm/9bf/0s/TeXyN46kiSIHNzJRMO4OguNB3MsF0tSVy+raZellg2u14StZTruzKYdkbtkuVgF4iDvZIo24YbUeJkx6N3pwEX/4yo/Qx6/+BH3+zX+AAitfvMQkDI9cHXyyWeTJ+TQULXLHG+vKVLeXyUOUIw9xm53JxBSb3wmejVmSd5vC80wqjzHjN+SVZNaB5q7l9lTW5Ilxe4wL/FHyGdNW4jFtxCPmz2RYLfcpMHZkuAbvHjF2+F4uly/9FSL6vl53J9Ok3qYmeyqW25Cou/ylMgEuQXkeQG3P3BpUwrPGGa71AJ1WwkUbmG/3kFNIl08oSyW53/zALkTpxSlETB+//6eoyJlQUHerHiMzcloJzdfGKC+kl4hQrUt5oVJAnuLlsTqJFcxAF+5jd+Yu63ux9xA9E+hpSdLknYB5HL4xeeCDYfGN7l9C/fP8SpfOt3dCT56mDt561lfvdxdpsvgs78R4YozRSXEjxtfk78bluTeXv6NoejJlGLMyvXZaHUk9MsbK+yAiom/9yl/8SSrl3xwJaZ00+05Po8X36NzprqVDVyuVDtFiB4sWr0sEPm4hU1IutfytPCYbT8zHI02QtmNGZuHygT587++n737z1wKGcMwVNpXeCejkFa0zfe0QF2xjyp6b9jA52rPej3bEAYzRieIvVrdG8OL3e9fvQOoUcO8P4khPoQlCvhXLh4G9KXF921BMXfQWZr/Xnd9zry87Md4BRnS5UyDYdZdjuVUFtOuen7ncZzgrGJdO+ojve8VIaS8fvvRzFL+U0LEHPUejCzhM/QkfWE0OaQftS9j6BXHhhS7hRNlEpa660merdRkVgb8EhZq4XdjCbnzgXP1Ar2500C4fft+P0+ff+NUjn6EtpT4gowsF5Iv+9TCFgXGO6U5ANk9BqiGFfav1rI3Bi4Dz/wyKVKcrjnjfEndvxcskWSXQqdYNo7NE3iM3YFDv0b7HjOX84oC3cN1GRXJivAMMMfPjqMC5Tjfj+LlCu4q3Q/taDAyrfJ8RI5ZbpmWiP2HJbHPk8FfU31wttOp7VtdtLUt0nGteoqLUvvhw7WYWrbfY2Fa2E6nFrzatuNhL0U8q5k7WhVWlYko9pEoiN96LLeVVFqbolid8lv6eAIMSHh+/SqV8cAY5KkY9Uw0Kyny9yiTu7tC2MlhSNzn5z8LF2kPqX6qrPbVg2dqlWFu6+jDp9IUOFpjouJPclGOrnVvL2XiUQCf1stY64At8dUKDhnkPkR1aq34XDcu+YbZxEr/NzYDjDGe4URjdh94LO/m3UBhfFMYKXkazw/dRMHppXZc7Ef207T+Gm8XQOOFkFXPXrW7d9tFXi6KXfOjSQ1zVnDfRE4iCDyaHS27T0rjgBPPdVRdXuUfoVAbWyhUqVD5+hfjzb6bN1VjUku6MaF8XV426uM2lMVWPArviZt0Gbwe8fz2AxrUH1q+j5EAALmDj6neoqTS5YwlKk63eDk6aVs/dB/4yNpDvEELDVzkNfkAJD1bg2t/yLFzb150YD4wxupyFQlyeM6F2Vq/3MFZdECuui1th9J6zukeMXvs8GsYs9NzzX2IzlSzgPG7slMHVbaHO4KIrNuMhBYuVilwarBJ6fUxzvXXWiwdvgcjCEZtDuVgIP1EO6sjAhlE+NG3nQ3aFKpPffudjXtHqcSgHLxisyIp40XbNCn2SgUnlGvS1XFNqG/K9DetqoSIetBz26zclYlu7Ktn7zdzmRachbJRTOAyEkq9OO7hhH0dyP4n+Fq7X2EecGO8EY3ek0LMQs+dVd3CP1yXJG/HYsV5fizGjxRAHRY+GcZXL3ek8ZwkVkpXUYrQfSualGt1H72lxsQhfqlu4prEa6fYnYHDKGHN1s2f6zqQi29dtgwafXvPCynu3cK+xwrxiL62wTgJokKQcFg2Dk1pcLUmdyhDOePCsKGbAEYsW5XHNYHjieChQSObG49oB3Vwg75JIE+10Ne7SS1SQdEU9viqmY798TVMvS3idMkaDr4bDY+CnQwv8KuHbq6cNoqdeLmXB9GZjBRvtGc7wFmHmcl+dl52V36XNMN7Szf5ajB0ej4yxUZ7NCqOgoxplR+hntiSK1p7z7gINEXSbpnWwUxerkmJvyprfnvNSsdXCS3zT4RAYd0yq81e3SWg6tn08KNyg449SDM++kQv7NhSDwGHAggA/i2CDAAEubZFkgRs378i22MO1q8WmX1xzN1vvXJWCVixOHvKcdI5bla0OQIRniS/Cvypmfdd6hg7DscExFN92OrIKvDuH24wG672B+kpYdfGeGE+E0Vvljsxn6bdwIWRu5B7GzH2xQjvDWA3RzdzjcZnkPwpGFrI2BqUeLRSwbsV9SkTq7mZWV616wMn6+wKK1x2+wqDYlD+mHb08Hvoi52oTHXdlR36mT0M33owdvPLFM97VO8zkD30plqb1M/PXVfoYGHkZbBAD1nFVzrgwTlfPCzmsbI+XvWBTWZqvm5MBtgnawM2v6dZUZlt/EL4HCpusXPdODhl5RVnE/9AGM9Dry6+DkQJ8/Cs5MFpRi5MlVexY556sOjjQlJ3dJ6th1keeGE+KgUe/IrPQMQ/jRK0yWXURI20skyndLL/nPs7m+1cxMuUfQ0eJOfpRW9w7BpbJ5u5n74XM+sSe0LacEZlyFksSLWrVb8Gg0tPVgKeg6fPhf3VWt1vQRYh7gBavg4As0Wig6FrrmVxHXkBllOLxFTsyUQJu8mHM4QCLtgN4HdzCO7RbIUkEdrJ5qz+borf3iPPptQj7Cmmzwvy0T6P6vvACFWuHY2Dky9mwxNfK2+smTzNecWMV9EyQazJ2L6flEVPdd8ARS347QKthMDge/gZ7hs2J8c4wsstZMqWxEp8JvkOTYay6LDKaTOm9FiPSPhvGCt/JYKHV+X4lOZFamU7pYr7Fe/vFIYGqFiNnIotSbHCjcHktUhzvo7Voo0lGmCOTL7cBXT0qlc5z42K6Ljv0iJDRN4Mks2Y9WIxzLntcta7aFMx54REazUr6XRCezOjQis7/P+qXKeuGzoXSznfrwQFZKVb5fVZV5GE8WMPK7xnjO33xifHOMOIqdyScWWM9BbNq2WflIn+knY1ibo0R01dGTTRIj2mPhjFq1xYDLa0axMVrOsEsa+deJ285e+uLvWUlc5vVnYxqpL1yJFinwNOdI16ZeN3F3osqLm5IJyxfH/2MQtw+F2Rgk1jnqRsM31h6Q7euJgumfKwxKvbGh2yDIDycBi1OXYcgd8bnQPCePQZ6F9zApFZJvC+yJC5uneuJHscW2lTF2sjOjG/l0nFOfMZ3LrKDJ0LHUHWVvky/SDye3UPUPI/61izM+r9YftZ/nxhPhJEtiouKPcsfjT5eEzIZVsvcCmPWDjsYWC7j9ygYWciUvwvqrtQesCqdXq9OZEoETk0jCpaiA6mdf28fs3dQe5BE5btseMgHBtCzawQoUUk03oWQxlIPJ14it3ggiI6V4HCATLBAUyuy552gavvr0m+F0HImMrRaHUjJqnV7DaKhneQmFokSrOpWBzv2qZoxlMueY1WbvDh2yYRKvkIFaCWezZq4GQoYWGj7MalxHxYV9gwjTO95wmYeuxPjnWF8BKJe4Vl89jzr+Fdos3hPIe+U6+XPLPteWJXtETGmChzLgUrQT+lYw/SqPkfFF61xWDlG4EANOBLH3jl+ZiGUl/EEmmTIumPhWVpU9lJERyyhKGg+xz5qoijnwQHPW8fWsbPjiaJ3xPwZ7eI4nx/F4CwZnr1F3LxZeD22gNBocLEiKkcLR2FduFaqoztOORTh58TwsmaKXgvHdwJuldFXKTB0Xxlvse/8pnrxa/viE+MJMTIrD8Ml5PXoe6OQ1bQZxiieybLKo5c/olul78UfCaNXdvR9qZ9sFrluHCav4ApBTye00slnva9YbMUpwfySF3a8bctVo2H9Myhi3ElXkK+rQHxCizmB0c3L3HBw3DqWtMMgIjua1KxZ16SqffxAAA1TPFve+biB9fHoj6h1R7iWYxW7vFL9Y4Jb6ewTTVgmb/F3NvHBH7tneW0c6dj4MdGxf7zUV+COdPV1PXZShBvzYr2w7vBm9A0JrhusNm905AF7jRd05bd6Yjwhxu596DuW26o1/ikwVrA/pRfgUTCuxjvmfVuFxy7eWuMuxD1eRC0NhTuz8QAT7WphM9VkQrMxCcWSdPiAUbWn7ld2GOx7ctccAIIYXetPtgCWauXFekJbVhnb08zcLnkt02uTBsMNEJBHMnrxk/71w3tNTImLPR7q4YQqRqunyyG8aPQgn5joaqpbWdd0RcpCnXprDCKG1IehbOf7qlMMcxN/1Zv2mnBiPBnGyohgZ9TwVrRnuN8wfo+pCcr1NDOqesJ3nO4SFrXK61NrvCUry+vWOHHFVr4IoifRaTmzYgvQyV9rPZNuQfMWufHMXb0BQ/t+9parZnNogo4iYLNIvShgvpJ/HURUXfLQTkCjl94wkW36CpfmEOZJ87Mvr5loXx90ttXO6ublB/u3Plt+XQVfPQBWqLiy7pPxBDpM72AIvpxJjxhSS7aBlh2UUL+X6EGxKi7o8zOcYT9c4C+mE7Wugpm79xraDKeXFvN7fF/rcl/BWy23K8+9Ymy63Cm4bGtHLopc3LtunvXIV3utiNKM2kj4gCKx3jhxq6PVKNyrovTjBcBh6ZE1LVU6yNtVBY60KeE2ODcdAMyK32/eHkdb41APGF2Q+Ie5kLWP+oih3vBJ1Q3tpkWcBNBAyl/aBvQSg1wyUKt/IjdDm7Ao3Oq7ZokLpjWJqlfUi3JjHA42ZGCCerQJxR1aa03EgKHNbbyInVSklcdXqn8gW/1exHoshE9h8JwYT4bxmvvQLwOaXXf5a93h17rt781tfc8YWzKocYgu1J67W1ZDw4p49V4SgSKjdAEd0o5d957Yu+rlP7BFYT45rQdDYSewfaYYYtEhrybeyuu0oZ5vys013kpbzCJFxiAdtUEaOdkuGOmQXFNLaAsozUjlt8aJd0ImBayJYfFb/Q+rKBE7hQ9w9RQ+aExoQ8OJ7zOvqn1vAob7nlcBgyzxNMGF8Br362rZE+PJMFYs5hn4taOKR3a5P8R8yifCGLxHszCloxaXrDMI1crJFiKFu7prRymW0JFm14+Y8cu+bJXDrYVSC93uHT+UTbX4wCpHh6vIZXL4OqOdGf+0Hs6q5DEGtBtBOQJaMRdZLfh2AKVz9PXPn4XO+l7I1Z9du6lsLLJxqJ81iCx34zrwQG8DHhBLotzDIMC1VPEt6VqhgFUvFn+BNynTL+YuqBe6WI2O74Pxd+54lQP5SYMgbn1219JhXJHojcNDWJMnxu0xPuJDDS+RiLxFTgntBWh6tFm5iL1SZgdjlTaW6T335NkJj4Sx2obJ+6+nYmdWJVgqRx8YD06ROFrWophbHolJ7rSPN4y47U9l9Vhm6aYWFzAoTrU4NeXkccwnofEoCKqoTLMG5WjXAsqlWWyYKZBGlFJ1DrqW2c4R8MbtQc/N5jZtJ20pNX7lBLVircFN6fzVVL5+EGPfgzgMQFUs30GkidfQ43jD3x3gpempYfc9z4QABsrW6OU3I3Gi1gO62+chrxPjHWFc63LPaHvlRoKs0l5b7hqMUXtI6A2AnhHjyvY+ejW3Z1mUYuhgVQmg7zi4OfUpsT7ZmIP7WZ23afkmFODhRJD/TXPg5SuZAu+6shGjYjLnpbxSzrhVi9wNbqAMc7DAMaoVgbzMOkZafC4unyEmijrllFQE3eG2G6E0+XpaHlE9GRDl8ivmUR79ZHw+6Kz27XeKKJ63jiOr1l1vUwM2veDXs7Nq/tAOt5j2i/yiwjgx3gmGuNzjKKK3gGolvku7Wm6H9lYYFNJ66c+KMcKe57uFRGT7lEuNF7CKIO2wPM1akkVuuhCKwMXLsJK6mGNUMQS3Lq7zfCFeFS46RMX5Skze7U+IA3VSGYrHoFqnKqemsXPkmlOCyfZt679WNo3ggjxip4hs0Rf5kQrebwrg8YJQLaf1gzMA3ECC9TMYpWlc64ntDG170FSXNQtXyIUFdPnkRv3TusLf8WWre9F9qzIX2G4JfKLLn1uMY9850DSL/Q669grfaZj9pm8RTownwBhdzrLC/LWKAePoYhjl93BX5NjF2LGMd5TdI2Ng2vh9VA13eMkZ0pCmNdvcpiFc9u1Xijl+cMpoKkMsBzagxdHcxUVMtYCzypo+mcm57gkUU8mqGRLqlMTBQeToeBOwfLDwbVBh2SVYmkXOaldaq7fGJIL+6pohhj3DgM2ULNJ6q1ysWG+/Y0O2/g43ldB8d9pBQuQYiRjE9LK1l6rI6xRcfWbfvoKhaeF7I94YPB0QKim/nZ2pwWv7vxPjyTF6B8vg80whYP5LJ30UMswd+pi24mr+VHJJ6LXFo2Gs8jyemeyqU+kYs9W+BTrynueXyFYKayfLwLfSQHoWmtvDnHB+4KHZJbrDsR6oeLn5P5EAxiXsruZ0paMibRa4GS/bHFBUAR+KjQUmStAgmlUMAxPCO8DZxYkEiqsHQbjKC5LXbNMuNlghG4EVsukBkVuM/fpe2gN3+oMd/Iq5wUnNtdXwxdpPqJFt49ZPvi7hS6GDGp3+sfhA5pVpzR59L4wG9CfGE2OIpRqtspmrdmThrpZbcR3vWKTX0o5k79VjRLMiw6NgrODlsrEZeAVWnGsawV91q2ar1aWsuO/FeZk7WCFdPKxEfVe+K2NKp8uTkGex/GL5h61nlqvVGw5RYeDL0C6IpTTZSnIwJDEhbN1iOWYWlqibCs9n+mXRmqr4Cmp8WT+sDLs4Dhd0DUV8McLbbR8TvsbPkm0nv1QLxZBt8CKzeMSFXuNeuMaaD8a1b95aVff9aV6Iyddp4CxxN6z0vauW34nxRBjZbWs7CmOn478Fbebi3WnMW5a7Ba97xshoIm30yNindvJVzXnDzwLGdQGUJgAdxiEPOlRZVpUHb2aVRhDBiO6DlkuDEd3zKhLnbMSy1zK+btnVM83S7CAVXk7Xuo+rOx69JUqbvw7v6YC2k/SiRFoXPbo/VDpayihHxJUBgWx0FJf78QGaPKrinp4soOiJdKhVCsStwuYxYXJvAQx35yhwNfWNp+8iEqA/g9rfHLphswVVWblLQos0J8Y7wYgu9yjASrjLt8DoAAAgAElEQVSmzGt5zKYCsLIr9Fl5KbdCe8189b1jrJaT4Gm1E7WulEO++ySgd2MBOxK1tdvawKg5Goy6Dht9p2Il1p6a/SQvMCjKSKcOVMaIgUVZixY86KUQNQ0CaXZ9LIPiNBpG/ihmeJABCCpvjuWaUoEHg2pTE1hoLK5b3hjiCWNGpd/qdnjCnQ/Y0MXLr4OLWCcry+xqf0in0xPSqC2Gf1f+VjoZfrKWBQz2GOaKd8Od3u9rZRX0qNyuG/fEeBKMj5R33j2FmMUjPeaPhIi0lyS/JzzKmfGN4RqMXl16g4Pe6CsLj4CB8d6oMRtFHrSFD1e66AGudlZmlRK5eVQioqgNnHWvfDn0oUGJKA54CbqDgVi2lsPrPQt5YzypS7R4nX8WHo+Hhtpb6JLvvBho8SbKvPh95AXax4xrNZWhbqgkYYFdYg0HcRVc40FkbCb1jMhHwhrfUJuN7QlfGP2eoVK2xpLqFZysJ2oW+yOzggMFaCqr6YHRDiWKvgfR5YIVKtjrf0a/u+w3uNrvnhhPjjFyuffCa/NXsGbpK+Vei9GjyfiuvrhHwhiVWZMJeuPiFEYNYoHGMtH6cnEOaaZ4U4tQrdxMwJgeFWzIzwYEjaWbWJNOoESGEG+UWG8/NAaovy1Pq3ejgxUcXc3mQmYt6ZwcMJDyd6ubPCXBdPVw4y4/wGmCzqkzJjlXd1SghUrH4VDCd9Bnxa9SKlZJ3oorWzCpXy39L3HO+DDrw3q/wZ3+4cR4UgxU6Jmvf2TF9gRetezjCGPk7s1GLDsYGY8VjBHezFOxK889YhDkjfIzWrcq3RLJWS+YES0zW4iVdIEFaNCKhq7VOUhxJT1iqNIGqx80UeAiFdO6uPEHem61884Wn/l2MY9uSXp6rzAF3+Z6jZdagypAR21UDYm3nmGbYBsUS9RLSjQJ6m1LJjixeLPZ6PAu4EAYa9/Qeo1GP96zlcv8AvKdyFRtaMNGaoK2khI2eNAVGzJlk/p/nGnvv6ZHyH5Hrw2zPuDEeFKMuA99xQLbcSXsWpg9JXXLcEuMWVvsWtX3hjH6PsQvo6fl0OknnWYJnXtjLaluZk8UFRCaP6rZquIBt3YWQ/e0/7R00+/NyKTFKLVeJSkfQ0mi0UORWO1uyZzoJGIkd9R+tzgMXLi1yEkHBPbsdxqya/OjvsX2alP7LtuhFNC4Q3AiJZuLnChZ+AbeAhwj1QEGehcyJ40OlIr5Dprmk0ON2JfLQqyzfW1BmLwwWly7RlRMTwfXJ8b7wMhc7jthV2FH2msV/ooMWXxXxuxlzGR/TxiL7zHryLqdGyUmnk+f+CzbuemsK4f0EvM6FnnKI+GXYk7Ciltd8txgoVX4Pu6HLHh5C9GgqeU/hQs4VfFLHg4K4qDJyS4U3HpkvMZ+gVJw4ju7El5W9cyQeXCK/9qk9ayxvnUd6xCwE5LmW+RcHS7vtUbUSvkT451giELvuWVnALsu9RXXQzby6MnQc6GvYPcwYnqGsVqPmXX9KBiRV4+WLC2eWe3MPFz0q4nYYR/5tYPm1m2tRqbzWwvjI9MsNrGQgJ6w02UvD5QnoMlMPtdxVxkYXOdmBRIVdSH78oqRzsdnQwzY6+31uytZWmog8BSKAu1Uwsrx5iqWgpYo0kG9Q13cuxHjONQLbPJcORLZfL5rwOL5RfhY3YrhpkxcOYZKkifiEA1tr9Wt713pZJBkckYvV+93tfp7fU3eifHgGNlta72waxWO8jJXbW8kM1EcaVpPnh0MVJY9pT/DWMW7d4wR30irGMVpbghVGzcuSsmTeVqMYw8pvXxplUm0ugsr0wTD71tv9o0jq3iCCNDB/WE15hVoar2GwQ4acGPrFpO8FmGqx7rWNvEqNlq4NmgCFR7sVHY5uCAOXg3WAHiRj3U8ATqgAhKuZ8IPivkjgTWxLaDOGue2qFJmea76pc2LGHFQBhju+xbltDCz4HrGShaf8Tgxnhyjd9uahGjlUhLH5/i5Eu9Zzz2MVb6Rdhdjhr+CMVR4D4Sxy/OFSCwXu+Mq7AAzBVM1Ht62JseKElW1K4Zt8fdxcVhg56xu8meWR5vRjgH1Z4wfyspUVLy3TVy53nqM6lNocdU3Xisa6tFgcMLX11Kt+tJDJ4dt7QB5Bd4Dtg+Tv1UuaHCGjEzC3o1zRf6Px6rGSW4YfUQ9mlnsyKvJ7Oy5F9qMr75jMqcPbj+TQ3Sw7bBa6vCIcPC9of5vcaf/HPEZhRPjCTEu8DcLSNcr08vP4jPMlfwZxizseB12+V7zUu8RYxbP6C9o3Zl5Kj0kmdlaID/rkYNZafwGVlwBPokhZ8wAG1iKCsTCjcLUTnygLIRNgomXdR1/xdKoKrhwRm4p5bBMC1qoyARb8MCxHH9vm8a51CN3rTrGGW+3s4GBa5lCtRATF64XpIU2AeWdvzHUfPBe2b8iyyr+KyBfrxpvDfLRl8CqoPVnqu3ieRLQaC3YuOBZQ715+9A0IytulBbTd6zBE+OJMWb3offSVqy8WdnZ6HQ3/5YYvbBKv2sVPwLGyvsP7RpWDmvHDrYpdOTOage1qoQcrTOjcf2klm9tuWYbmRxoA1MDWgqKZ7iuTg4j1jnuked2DQEToZvAttOl1XAL0ZstbZpaQRxGte6ZSO9248CJY7rVE8+KV6bVdX+I6ref2Tut+dxpRzdQsgA+mybT7bOXbXjy6ZrEXqLfchb26IPnAy+8sakYWAORrMh3Vnk18aOnonknPqz2xTH9tb/9E+NJMOSkuOjCxbRrrcC3CjuW6bVW7Fsox3eOId2y3gEG6TKn2WrQ/ulvfZzMDd6kwASqnlIXlUajvCyYuz6RgCGC9SiZZvYKOR7KEoclErcrUVnlPGj9SXEByl+lCjxw9hzUlkkUxgW+Av4Nxe1nKnMmFyhYz9VKt4f5gMWMuMAQB2QwXtFE7/FPvjGtiH6wlQVNRt+75ImfvmF/hjPcLMwWxV3j/t1xY8vg4Rq8nbCLkS1KmNE9M8bLQpx8mvTUtcMXgzzr6FC5y1xtdjb3aPIU8tjRd7rO2bFhnWNZRTWpbkCtEXt+9IqTj3PFwGIF5DL+OMCJCgFL+2Vpvh5t9YQUyxSoi1ssiBZwE4pa4m7ZekmrbbTIK44U0Psg7NgTixWNob2HvNj3Lwwp4PbWpFYl/54V+NDCwNudu5+XbeLrfdlu/3pNv3piPDjGzOX+Vi7pXpmV8p8aY0Q/osPnzFPwCBjXLs5Ql7uad5m1K/0gVQsWrSk5GCZbIY99c+q+DJqdyVZ04z3XlVlBXojRMAgyBBB/41nAUFrDkK1X4Oht28hhQPGq4Nlt1SumbUTjRVMVBwbo908XpYGmVavb2hCbXV3uUo5jjUIdVPEfSlDppF7uHcooyGvFOJRJWiskxgGRW6boPjnBc+IToQMGnmu9/ahS5XT1fHvv4bXhxHhQjN6iuNnitt4CuZX819C+dblIOyo3oo3ldmifBQOCKLKO5SMhUcycZnP4BIywlWu4wlk62ubo08g7FktwtXDt5VU/cK0262IxhmY4FpFJPGIevFkwU5HgalF3nn0BseA4VtUmxatEUHhqteuqsMquEOFaA98URcu0+8+Nb7xPnKjuHS9VRcsqOHfEbNa+UFfwenBjtlud5XhWLVIiodDb4EWDG8+V1EOgiwxlUJB9n/077vW7rw0ja/DEeGKM1ZPiVjrznXLXYGQW6ArfXYyMPsOI5Vfd2o+M0aNN6EGJYxq6YqUTh6BezBBviFRb5YquwH8llMuN7WDpNy55wCQiXUxX000JWh6XuBcclEmPby9eYl7JPo44TldEFo33ofUGs2sLi2fHn6pyhswSDs0pUWwO5TMFKiKWMACA1f3ofFC+XC1hZn+CLY4l4c5zP6whaCRqVsfjYyEb2DgqqJiw0u8Xm1UPVZ39ziRk01tZiOuhTox3hBFPiusxfEvX+60XY+2mZ0EacVT/7EXtrFh8Fows/8Uso6AFmv3X6OQsnl7SM73XdP6i4MXda8egqDXlIEL5gjwSMQRTBT72zft6gGJSfZrUJzYApjdVBG2K4wmdG68eALDGIxu8x8UpcjYJRcmoF8GBgbhxo7WLdXY1KBWFOkqdsL3CEHDwSlx1GOn9qYONKByKQZWa2QgUv/f9i0In+W6xo5n3b9WHrUy1nRhPiBEtt96nxHtu28wiXKXNcLJyszIzb8A1GLH8qpdhVP9Hwoh4WX63fGtcwx7mok5a6Fx7yr6Guim4QO9d3EZlUuVTSGjB6qwItnJe4qgsoxVNB4a6vDnFIMDAeAGubo83S3vAeeyKw0BbaUCxOb6HKwB4HnyEb9F9/kcccb3sBNqGTV4ccEh6OazwItZz9bS4uhLXffM1v7CVAXxt+Frhgo1kzHSPvn4GEmRl3ywMYfW/wsv7wvZtg2t/JtK5EhCf4P0R18GPKHMOQh/hTd2vJ8b7wxi53HtCzOKfknZX5i9K9kfEyGhW+NbAurgdrUa9jYyK9pKN8VzLE6QfFrGnxeM18V5vPxA4nopiE7hivW9AOl85pU6VnRt8FIeh1nhBTn6Zlrpnw0I/Qye81t2NaLybN0otH3J0bNQYpaEjKrbwHRu8kJ2P7jSPpFXU5t75VktFaYujDQvepGni0bo9rhyp6mCm+FSEbFP97XBRbPf1YKtBAQLviSA/N64yFvv0XzwsPerDZjtKRmFViZwYT4TRuw/9U6zc+5Rhtz6XjTI7tI+GsVK2j4HzmMz10hJJQ0V4PLOR1g7QW09aloPKiXqLotvZRgJW3mtOh2GlIN9AIoboSj2sxHwINcUrcpZ0UGSKoAqFTdkR6dGobkAjq9xBKribhtqV60F94cBF208uTmFw1bPnG1oEL8+JgzP/6QcKWlcdjEGFtV2r5Y4YoVqzYFMg4fsUUvD4Wad6E/M9S7PvlQ4htU6sixah0kfYm8paC/ibXOkDTownwZhZZDFtJf4a2pkM12KMeGT5lKT3+K7QXlvui8aI5bL8Doa4u/GKT3G5ksvzV4CKi1ncvqzuzPbwUnJ/hhkxonUb8avXgM2NbC5l+1TNJyvXWzBSMxvPDdU/qm5Y0Eg4ZVCjQmOXlMQhRrSgvXZRcTjUv6DstT4lLEtkUVa1dRrtZwMUnWJI2kFX7gul1Jkxbnyb6Qi3yp18qBhVfO/6RwsbyorHG4/XdV8MCuWwfEkyJU0GCiAvbkRExil/H1Z+Y9fQnhjvBCNzuV+jXHsA1yrUa5TIrTHiqGqX72q5R8LYk6cquO7JWrHnZZ/ERM7lrJZeIQpqCFyeWe8PUbd/OrjnS7QqE3s/UQDIz7ZXWxkVrRDhyunClqlGGxPwIK8M6so+teAlicQngJaoaNRS6wV1YFM62N7ecAymami3WHO4Www8ETZw0Xep2IEVKEUfStLOUdaaBlieMKGPcRibZCQmpW/H1h43aVte8dtNRPb7nP3GMvfrqH/M+oAT48kxVm5buybc2mWfKaW3xhit+O6Ve+8YLsRT4dSF2qZ28+NT63JnZymFddatTIIBZHIGuLr4FQNQCsjmlkBXi1xZeue8xlFju1FE0g5oFSptVR0sGFhPVnmLPvqz8VkxQvswCtN/N/4xU3UZ39CGqLxDjIHIk7E7NVWUZjYF4cphU5eQTlmhWF33BQlk3JTJpoJ8s/q2rOp+17X62j7vxHhyDDnLXQr2Rge9yfnZpP1rJviRRww7cq7g9jBewieFtJ5MPdkeHaP35UowOFjXbDqNqFXc9RQ3Zy6rBW2fqkBjKKRqzqzTZjjgZRAywUDrtJE9+HKRtvVLO11hx4x6q9f0i59P9vXKzE5AY2sXPaJVt54ZSHEJUrB4badKLlHkmcs5KGj9P4x1XKVBk9pYBQZKjiM2gfcoYBr6UowPBxkhXcrGeiZn7SdjEGd7uyPas3FOCAJZBwU9Q6X3G12Jz+hOjCfGuOZgmV76rnugV6aH0VMoM4yVkLk+euk7eBntI2PEMvELFYL1gqb/OpopHBiSHTgjPFMDt4sR42ZH2/Y3ak5pw53slgau7awuZoqbZYiWM1jaTaiiNXVHjSLag4n8yrCK2VFIbjGes3TJjnAtntZB1wGBO/AH5GRPHQY+4U3BoMIGaCWhb5W8Cgml/egocXLHL0rnONeY5o+e7Yd0EKZYEO3zWekzV363O33vifGkGHGV+4VyJduzgnu0AhbjO+VGo5FdjB6/3ZHQDkYWHhFj932Qy8t6MlvGTqYtEouKWsWeG+hT/6knExlK4j51HgJMZxAzKtwM36p0UHA9wS0IpKY5O6My1RFunYCMFg5Lu90+R97RAJZ8OiBpBidMtgLfWoQlD+KHsVvVq5yVj2MPMIaji7wdXvljaF07Qe31O1RkUFK0GjpAqXzi7oMibQZtwtj4isPAKHhomrww4MKBRlNjF0a/5WvD6Ld6Yjwxxscp2fXM8TPGR2VmaVnejPc1GAsW6DRt5oG4Z4wZr9GX9OC3YI0fATRPSZS40AgR9olu21awqtB9DJrNVmk3nNUT7czZmuHooCoGl4xIGiTEC/Vn7xlQxajV8MfNYo3ks1Bpmt0s8GSYgPVCBUxmwUtFJe7+r1uxXDvgu4TX0u4hl2dpDXgzgtX5Dpmr2wYe2j6cbR88BITj3HVBIePIC+VCaG2gQvaaYRDgX3E2PvKekLRW00E1xrPf7Ox3fmI8OUZcFPeSfLZWVzvCyMrNQsTo8SSaV2QkW6/MDGNEi2k75R4JIwu999u+f1nc1OmQneoTZQYKWCy3Iw7O3WIfRKBcHMzRZbb7le1IULGYcQd1epZ4wgHP8VZjLJ56IwMCBmbxClJnMFs3j3vAVepkrOBUuiqU2mZN3a0Etq2VMYCe4nefwIvwbvjeJnGAMGVs7m3vCwiaVL0ANUUHP5RgmWV85MshMuzynCeDSKceVE+XMC+P9ebw2sjnSdzXgsPujFSlr/Rpq31s9JqdGO8AIy6KI2pHDJSky3PPLTty5VKHdjesYNwy7PLNXNWPiDHC7fG9NOYeJYrEhSy9tHFUpM76rgqmFLVmHe+sz3VSRQXXE62EjlpIPAYI2WVroxhqBgA4UEHLruWQKVA5xEfK+brhQEAqgWffhVzDIQLPt72bgo8Z/2qqs5rspPP98q7wjHg7jKjKBhedGGjiD0m/QlIvcJnD98XeCbrIYx3ZynNCBgn4jnGqwV3JDmOLxbD6+36NO/fEeAKMbNvaquWbjRpGaSu0vfBajBWcHTmvrd8zYyRpPLQU25ArEwx6wlqlag1h06ZtLHjrQ7pzxbMfeqBti4ok7rWOJRorLdQPBx8Yxzrh4CVzePiBkihyVoVSqgKLVjwU1vviFVzpzBTuvZMmdLcmxhbNGo4V0tUblalewCPy9wZjGa6k4Dn/OrsenPRxg2D4vgTYqKNdM4s3yGn25c5+l26n3zsxngjjQtfPqb5mLvZThbeS55r5+0fFuOF7hk7cpeGnzKeG7pG5/iGf1sxhwGAKlneCrqWcS9ksV2fVwX3mKoOjOdK4JOVVFm4UZXT/NhgYRDkLH4Y6uoENtALnyhzGD4kerLxZh03ur/jKeRHdJLq9S6OWC3Hscp3E8O8GR4Jfn/hyEwePJwT/Cia5+1r9GoOD3NYpMFnbMZYrwAu9JL7Znr3vODE+McZHfKih5+vH/EtCgyOKmdAzl3uWnrn3ZxgYMn4zjKzcKOzMQ987xuw996ZZaogmS6ZKQSljZxg0jZYUty0R4Ypiu0rU48QDRarhOpAnyJHVo4RPl15snhSxsUC6Ys3q14ol9URFDHZjsaHPsUANsVFbO1Pc74Bzotr/No/v3evRerZiB39mKONWpycaN/N0u3dYHLlkNwO+ZCCAaw/8Egd30jppGwdGrLmy9gJAagMdrx1N8Y5PHbYUhsmCUf/Xm04chez3fmK8E4zeSXE77uksfceNPuO1K0OPZqeet3DVz8IjYOy0T6AFbcEhPdCpa5hAnWj/Kiu3pTOs1lTx1jfr9qHirTY0rTgolcHm4KYuw3RfSXZ5gcwECTJSSBCCl2agcjx505pDjul02H4WlJr4jWObq2WPFmxw7BscO2WVOeajrETklg6ErPrK/DsrplbD98Hz6WNjk4OiL5bJnQV97bRIInQjRZ6nhySN70PHvKdyCZ8Yb4txgT/qfGYji5g2KjeK79Ji2C13De2o3A7to2LEctfQHgEuA7G/I8sMyWpKoRWt5iBBp1xd5KKggd72MJtb94CXtArI4RxzPGNd0xKDnVjnpM1OROUCt5ex19UeDzC0nCnxI/4CeERmW3qj0LuTJYoCxDi0NbSRejHqezIZS9MOdt861Ke6140W3gPyccyKDjTs3VAaZOuZr3Mgd+l173+9keXAtyt+ChVdbZ/9Iygr8eyCIAopCScXk5ahtn+9Vej1zyfGk2Nk+9B7YJkizkYPOx3/SrmRLLvxHYxZuVj/0eDjETGyckgbZfDPthpLO26XZw8WFaPRHsHa9dZdon5bftN98FIy0b7IK1OYYNm1odXk8djXIw7W+P/f3tfz2tYjaVXdboaA0UQk8A8QEmQwQpCT0hIxARkJAeFISAiRoPkRIBGB1AkB6QghAkSABgQSARIgdQSIeekZPqb7FMFyVT31uLw+9jn39t37LL/vudvbLtdT9lrb9bFsL4V2GG1AvEnZpYEysUXFr1ievjaxygg4Xzryhv2I2cJAlYwp6NaIaIdY0R5og17rGPkYj47wk5npFePlEmkaKJjKLQPh9zmQEOMSxo4Xm8uidezalBGSYPvW3jj8m3pviPdofr4xXgxjtQ+9+342NH42RIBCH6VHQ85X2lwJOXftrobvnwHjyuOQuV2No9cE+355B3idGOtqdVTkHN7Vpgbfo92lqndn2h6jBqD338/NbzTL8HUiVE2ESnoybshD7dbiz2OuoE1S2Fx4J1LOMW9so9k4IulwMWG77c+gCgbMCBNxDUdas45op739lGa7zi2MvANFfGEc4nl/gNfCLi1b+cOAHV+g0oKJipybO98b4r0xPhHGF/iT5pPLjvLcpqvvaB8J8Z7B+EiP/aND1a+CsaZtXZb0hrd5Ld1Bd/o2zwtOdNMxFarESmIDB9YVU/znnmzojSnUKdRi4GW5yFg4RsefGrQL9U5BguyXjUgtYIw6gxXxHq42XxEN4xCyFkXuikFC8acINcwrIvG4wT18H6+iz4OHxulu2fOUMUPrFl6pjkcDzjMWrMEzC9M69rFrARX1TtJCYyUf/TUPqYvUULfQn5X3r+dg43N6GE/d+rJdHhgp5TqQF+5B7G7GA0zk64Reme+N8Ykwjl7O8shkfub7HtYKt0tnMY4MlRXfLuSxkukMv2fC6GgwbMR0zaI4cPXAg5kXLg/FzbO6ylBYrvEMNI9PvHVy59hnZnGiXmgPPIQEZuPapqtH9wzFG50tm6gtCUK4fBq7FC2YaipUlM6cKNfAu9ccLD1sDdgRNg6RwCvVTUlmu+zSdl1SWMxPi8HF6bfPWD3usFbOAhyXPccyDLooGJT4tpjp0+AaCIwreuOOH8OatypcDrzi9eqjmYe3IcR6nDfIUMTJ3073e3yT/jd3RM/pxvgkGD+GQibqys+mK+3O0GJHzoQjWMF8DQyuPxOefjYMvok6mi9NeRNyB6VHSquuRIaJEChK3hZl6MZhKBeUqIkWUcosO8nMmCPPbUkuYwXOfSgxYO3rJxmk0JV96gSxqZMsN1ZwCN31w5WeDGWeWhZwLOUsvukYA+in50HlwzCQMpQ6PNPBPc1wbnmWAVQwXjug7ZdyNIZViECnBIbi1qZvWq5sfaFQDPzVx1vvfQR6Y7w4xsrjw/KVV7vKH9Xv0e6Vc/0e3h7tt8A44w0/A8YqHUcQFid2VfUFYfWgrUFjEQwH14NIwmMcntoWRu1CrJJhZFj1Xj3MnHRbDHAGI2w7PK8oG8pNNaf/Lf8G/EZd8INV4I6F/zkG/JUgRA5OjGN6sxZ7013vYugcX5UaL1ExWPk9vm950KT2NitWyzwvsFfwtjEigKKXayQ1oT7OenbLMTVlJF/odd5uUP7GXYd1wV7hUXgjq0oukg9a5xdMjn5nj6Yrv+Ub44UwHnkf+hVF86ui/R7k4bDKs2J0eHu0I/nUpnVr+PTe8X4Cr68otY4gk0+aoBxNwXiAcGoECRTD0iCuM5zdqq3Y0CgZwW0qR69zE03rTF88/rlP+BKPKDbJl5qAXFVEZppHmsYwCSlyyLSqERR50qaguX5ApWwHNOAZK+AdqspZZbAxPPV8OoTlfJuGxja+rl1bbbNhBLW06reOUnUd6y6Ff76lp1ciN8b3g7EKuQuUf9mpv9Nx+hZj962vz9nwPYRa6xPHqvyq3y6ljvML/y28aOYBKZoucFYQiLGUjXvXGAqsfBkvHWsoQytk5mNBUytQCnznN5dVIZjxuGpG58KjPdIMnYGRpEPzBRqNR6KibDhEFoZBPEXRPFimKONGrpKtgzILXhJ0dBkymG3NjkWbtvJ7Xr3ThyY8+vVt8SlAI1Te5Y/qr9IKlLGsZzGO2q0w9tpdoX0ljKPrCMnKejD3ZH2Gtj0NIfi9BKXB3c6izam2aQ61Jjd9Ha7vPPf2JYFhIqJvrRe4MlKKb4yaC/IbhkI0Y34wIeJjaRFQEHEPsTMqmnx4melgp+Sztx84xdgYtdAYPe7w1Gf9G9dx8ooLTcMkCCPcIjFGhgS4FwGFYJ7NmBF+WRcRua294ve4B8e/YXx4qaJUVzy11aKoj0w3xpNjdCH3LhQrDd0q/2i4d4Vxltde/hGMI+xHIxfPiHH5xrV0masXNeWtKJlZx+n4313E6sG68ilKAQ61mUP33elukrTOt5GzlhnlvWGoY5AnACBv86Evu/VWhcU+KTzj1sV4ep7iyHgEbKfInbyUdm7pdAiO87JJR0qDEwq1fQQCsqxYoKVhlgMZY2hw1hEbRkV+63UAACAASURBVLIM4bd72G1cczRoPIQw+s7rMzqRF+m7VBQ3xnNgoEI/8tA78Ec8vpUX2Mlwlu8exkr+Iwxus8I4m54Zo6PtVm/WcV2u1jb6lOZZME2D0WTlaaP31dBJqvJpBXwHjbN89IOUZnHCwdgIb3jwwFjwXhiWow5zJ0XEj7clY4nc4l4/obEBloTLDPvCM0yPrUmDRp8Wrj5eZvTqQeGr7083boAKmTpZWYwyhcKkQ3EnXa5bOy3tG7Mm5CfzqA/CNElhW2F67yPh74jnQi87WunMNKs58sZ4cYzu6NePSHue8p4SuWKlfC2MK1GDI7yrvL43jCPLcT8i4pMgL4SbFpbV+bgN+Wqt0ancW1s4ek7NOjoXnek0R4eMCl72FC/W8FoLBuj5bf4GRTSFi7PPEI6Y6FKXWNGFflytH0HqIeFySh70WUSAViTVSnryk35mg6XQafVqI4yd8ld+tX0qZCzv3fKAATtpuhc8igD2E+79No9CsCtOX62r1FqveF243vDt6sBvCmBEAToV/h2NY85LQ4d8mO+N8YkwVke/8ufZPJax97tKTLvHl9s9ireH0Xmee3yPeHSK+FkwuN1RWbmONkKT6cA2EzZpcjzYxEYm3xZmNbQZ2arEggHGisE9821uriQDIxSBZ1xpzk7o1BU6+3PemSwhOyubjcaft1Za7tXUUTp31sesBcH2PmblVBUikVTE3kdyelMWoyzjFMzqiyNNMSREYJU9LIQreZK48ZqrUVOjF7MC9+u9xrCppCazNCrjFoxhng4Yfs8cu6rb8whvjBfG+CK95XDk/a5ou8T1R4r6C/wdpTPyPoJxNCYr2q58pUCfDWM1xgtccKfKnm8T3wgci7qMy5PR/Jx9OY02BoPVvcIKihwUYmCoiehb5jcCwc3b5Y1fjuIGRvxZ8RiDhX8H+fyI2Pw+jJqqVWNvd9Cl+EGjwU4rWW6IHoVvKerIoKzRNLxnK0OIe+Fj6AQiAmG8dcfS4jBkpzpPFro/KVeF8TbIh0FB5Y6hUG7krZvkCXJF6fptUyISLGRTp95rHCuD/f3vSmfn3xvjE2HwKncmPspfmewfVAwl/4iMK+wjjFW7o5DKGRmeAaOj2bM0G36d8k1vML0V9n6adtObyZzMyzW1CXh5m5KxEgVgLzC8cSyfaFaGhORzYO4HK2/uS6cgiqefdWqWB5I0xo1ih+G7xupsUMq9VIBPOsn/1RycSXT30CFi4OJKKHgv339hjoChxxvtUprt1aimzUXTeQwNykvwIzjmmQJZjPecj4ENA6liGHaWtP12+2kJx0N6JJLJbc8a8zfGi2PwPnRWmKtwOAOsJvk9+jO0XfoWbfZCG58J4ygMv1MGCtKzOqZyDkWykob8dkAMKUzUyMkkpn1DUhBnMEyBRkXZ7lYdQeqSZT9gYV1VDqRMSv+RttYX5RP7vgFjIVQ541xIjbUDwXJWdbnZNlbk3XSVK6S5lyrbdfLLaKjUYai3PPaE+wJ5kzlSAxqdt97HEaxkC6Wy3v5dGRK8g3J6xCJ+PdYGgTlxY5OVpyf1ej/6mHEv7c3JN8YLY+x52l2DL03+qN0VvizL14oAfAuMo+/PgnFE22FnPSu7MhGDl2lE27Urszw06KKXEeccdHmua36PV25hzHYR8y1YhIsxVV/VrlTvMked1fFg2cV5Vc+79EUkQuwRuY/8UF/YTQYL1lyuwxsfn6PPXUAhvGUROPK26/54w5z3feSnE1dr96rd5oEYHxsGYwFDdugh3mfOdKHlY4Pj6t4kjNIXQ7E0HxGE6CHs0dzZ0ZyJtO21vzFeFONoUdxR2V5eDmhW3uOjeI+0+5oYR9+fBeMx2sYx9AVo8e/k2WbWSh69V6Zu3pw1GMzsrXzOsiGJ7dcHzV4Ae8FDcBEY9oT/ncsjafahOq9vwTckoyhC0I5Cp2VMPmymXjMwKiCaUMLp9Jhi7+ie/r31042QwhQGRUP32POlmZs091l+t4nKJqJFvhSXirPe15nf+NU5+cZ4QYxHLIUztGxNPOIdnvVQvzbGe715lvPZMI5S325y04rLMjwW95a3svpecYM/yHodOtPFe/Uy31blGNunoXe09MazEzp5yCif+37VrWwVMGqQ0jVLHos0S2klhGvAMP+VfHd80M1KtZxB595whJhn6ae+sNHiDWkRG7zUlbpiYTx1gRZP2LZbmLhKJlLGCpi0KCVPtyDz5dsvbk0wgqagQQW+8ju7kh79Ld8YT47x4x2ANzkWBGnYojgKDXP5SvmsLJoO9yMxzvB6a2hX+WfG4OvMY99ca1d4Csquzoy5CGnQpusjPqFu27mkuKFbLXiIJedKfROtnOImNI+7h4rKBt6wlfvQI6qKws/ZJjSdMld+G7xl+NVMVFlzdH2s38PLpl6Wl6ZAX9kT10GbYfFw/jfa4qFbsMy94EbetfEgB45g1GBambjqZ0pchl9F4oH5EKjGGfjIVYpmFPghGwUBzP/xewgetG+XOnecz2/R4z7Vfliucuffzt5vbS+/N1/fGJ8Eg0PunM6ECo5CAUe8r9Cu2h3J9ijGqv5M+athXAkhQch9raS4vERPi4qwqdn8dm34Rqva6771Pix7dJJ78bonrdD5r7N7W3noVIaPJEIjLMo2ed+akH0vvwOUPsEqsNnLnq4AsKH+4niL5KI4MA6yslPkrrZBcdtb7UMJIaw7ymeu+zcrGLiwrS6IdNVcTNBpcMi6LGheqNyo0m1FV+bUM/mPmCdujCfG+AJ/0nxy2Zn8lXZ79Ufy7PE4S3tj7NNe4Vtpw1PJuCUf9108L3Ts1D1rn4rndnVPs9O+kRcHPivpxKiPxV+IPTDUQg6FRwaTnLoB5N5r8qxhAZivnMrXzUA7xhjb8HJhWtePXMAmxBG6lHnYwI373ZXoN1oj2fl6jHF3PRtMtgYl4BCstLSf8yZmOUeFtDhmeA0obZcUr6cV+nJPuLiWhgc+gliZntk6MepgTzd6SZaGVRPZavNd2qN9tO7GeHKMo/ehd5P5CuCo3ZGwR7w9xLCHsaK9gnGU32t/pv5ZMI7GlfOUqobGg0bSS4LNUqxNKO+7gbLclUlqJGVaq95X9ZzAhQS2hiDNQ2R/gUvypQVlls1LpGBqN/5h7w8ivK0XKcB3NLLovEoJawdtWFcxPo49+8qJF/0t/eeOcluZZNBSmWVOpbHvnJ+z++OAIVWcGEicTLKPk3NMwNxnGz2M9kMmvE3amxM7otUiAlJr2mu5mUVkPQ9hOYdXvZ7nxKNHlDfGC2PwPvQv9P1qePa9IfePCGdcke1M2P4sr73yZ8VYlZ0L6/vkys9YBdZCIw1oLT97O/Ojua/uLm/T0sRAHiKk/NIDizzSkhI2UHxRhv3A70X3A18sL5O4wb8wEDY/ekAMwzKkAYUbhoaSlvHXxKJyhu6lqTXMBOifRwyq/eFRBpUSLhcRPru9T1aux7xIMce4nmKrYeggaZe3jqYRiJ4abIfWLIlDjCFcNXo63pECpPT1zO/vTPneb//G+AQYKy/3aviVy7lsL9yLZXsYR/Ks+F3pxxWMR+R5Ngxud502NvG6F7aVRUR9IxIR8v6myREbWIRvoTngCfAbSs1D3SXOKiJK8lG0tKoY6ANiGBLXEHnBKHvgnVZKeBg97zIursBg4HD4NngYn+piFtm1NJYMrUO+OJtm09Gri1Pdi0B4PCt+12hTrxXLVTiCgWR4nQijMpvFWvGfm8JRugyj9N0WcIA38ejFuNOd3pX23oe+yuPnUQj8vUqCy7oQ73vxPpLXR7f73jDO00b4lA67LAoTJvQSDkZfyeZ29BxUxFcdQ9PgxwoeFf3C+2KFNspzxXVtl+LkufDRjR4c+uGKVERIMRRvvPBYaSvvWSpzfMkL2gqpVEvT1pDCo+EnBOddvFbN/pvAqvhcX0CXKZPiOFdgjixgWBuHpFsTGVq0uUd2QghzYlqXC4dy8uCpXgUNpM756FIXft1Lq9/njfHCGBxyZ8AzIWkHvRLqfU96BOdbyfYZ0/La19XPFNNcpuqJiwhqhHWbrponVk8lRApE5IXWF5p0jI8Se7EkSNE43MSoFcojYTiY+VvaUonGoTKays2HyBV5Kh7Xlmk6bMeV55haaGUpj0ImSV0ZK2wh09R4ZbijFY6JAt3oW6cVPR+vjFW6JFmXtGE60e3FGr7RxrwOwWYMK9YGn72XvLdQfjFlHl0JvZfY+bkxPgkGvpxlReRMOxouv2JNcPszGEcWS1fPA3kW4ypth3GU/94xzuBhqrTqDht4iMrOUX39RvXaijtbTjQLxZS6prTIR+f+HnElLGgAmsYVXS7PwtenVm/amnycwz74JH+VeP4PxWFbkKJjNxS9vhL+Dq8duLoOKkZM7WMZxbKIDd9ER2M6lPlkH4mMffsklInkyXV5/XnPeOamwYBGUiIz1SWXknxv/ejN+GyMqZIf74qPGMT272QTRjsfOygcNwO+ERiDDB570CrL3m9NpP+NCdV30cu96OaN8aIYP5ZzicE6Ia+kTsmsMLDsKB3JeQVjpQyPws5HY/IsGCucI3kyXzSWTKHOfFGLCWrmMiHa7O8kD/CgtZLUibTmRGS89AUMgcnDk4YntKAwKjEYGGDQNCLGQkDimf1HNbsZBHM3scQKq1Je2uC70J2CfUpacW7MY1bqlZZkxS8KKm1aaLfVH58d5x7yLHVNOJIeLdBar5U6v/AY+D9guqgbf7Nn75e2PSGvpm6y59/WyjA/OyfcGJ8AYxVylwvlX+j7UQj+rKLeC/efDUO80edZjD1skd46ekWMo/bMA9Ks4LbSjHeqsCLpT1nb8q2mIlobykDCJawHm4BSDAOjuL6VIWsacKvhaG9Sbpui0cI7y51vyGQ5KuVAPdaYRSTwrsGqQFWD/PPJgW1bv9BRTaupho1NStg9iHmYBn02TS+7Eb9NhteABn1ZVToNnZ92O+Cg1n5MQhULr29vnYHZYRS8irHZFHEjX5l7L4Vfm/yN8eIY/D707lMo34F1Qp713s/SrfgfhZRX9XsYzPvIUuL8q2CcHcNF5IO9vlq25XJmDZ8ZvVlXSEURrTQtGQiuj0IxWXHQtJA6KKrFWcGEwbCO+OaWOqmTf5y5nt2Eo18TMtDprWqJ6XLZdHjLZrPkAKKnvem+VEw2RRU0sPh0Pg+ro4x5OUy6cSrfV0aKwPG3U9IyHq1u1/lzGiYQo+R1AduQB0ttCNp+YSPip+XbysHplEA35z0yb9wYL4qxt8r9jPLohLzS7qyCWmHt8bjCG9usPNmPSs+CccUQalM5z6Q5qk1p4tcmrJsplVQNmEJIlSKpUe7fUWeTOVEb5qllSINls5zZvyb6HvWhlzslUCf6aFEdx1wLMLefx3hjwUZF0li5RvUaLFQswOX2tWV30IwrBhlrYmgFBgL28zBw7dxtQXuGQYU/pBVZXW+Q5wQrSPyb+ygj/8b4BBio0M88dxU5thqOrI09C+SI9kyey1j2MxiyyO9ZTV07Tx3e947RlV/w/H0FNkzmKnUup/gtqTyprjokdN/dW8RZleP2XfRzR+nWUDwUdU0aF7DqrYwc+AtK6ikpGKEAEcILpgHAWH98rJ44c8eh7dDgRwocOpIKunSQ22M8QJqnGCS/1NuiXh+Tulq9mjvGL07BsYy3zDB3zeurWj8dI+zM5JOH58CZ8Abmle82kG0l+xZ0AdkQq3ZEZD2feR3PkV39UWT1xvgEGLwobuXZMc1R6jxwLDvyHjtabve1MPZor7br0jNh8BiuLMlGHjg+tGh0mZRlnW/BAmADoEyMte209zcSFAQv5710p7MpYhSBEaczSpjVUHdwaHy+3hUCFeR612KOKpAn6xlU0jaMHdZrvQUw99WvCeBX+XqLq33Pe4lX53UxGs7EdkHmp9Y5ft6QeCt9Ts3dQNCpvcJg1mPZNYTENwkoNPLbqvQED1nob7fV724153FbVABnf/s3xgtinFkU11kKHV33uZeu0H5rjCvpaptnwzgaw07xv4mwmqveeBZTXVHMnZaelUphSG/bSn4LNz2MBy0edSNoysMePGIMHh2p0n761JXWO+7ODhRf+KmhJKgOhoefkXuUIMXN1e58Vk3ZDhj2gAWthRIsG/wmJliihWKmVaLwceEWk31RogZHaSZsb7PJMGzu3R2MI3HAEDr63WH+zBzMac9JuzFeDOOqp/elyYuct0aYx1leK5n2ZD0rz4rXUQTgiO+qf8+EsYfX4Uz1Gl7l5rGDXxSLvvwtY/Dys1Hv+3ad3h0u4KWu8KzQjirgp8B3lKm/UW20m/gyxqCDAIGM/mBoffPsQIoQ3PKNZPXsW+cCX7we+W7AReWZki20PdfOFerk7aOXb/BmOBQHPn1MxeC4XdterINjMJ/ybjmAcF1xXPnabnQ5VpugedGySlO2MfSV5/qvS3mfJUbNwx/hVUZZiMfoOz9xvrXV3m+qS6vf2tX5+cZ4QQx+H/qeF/wR+TMWyBXsrt0VHh/Zj4/g+71hXKWlMlcW6K46CfswNpWms2Tpre7xmDyqyc0aNbOfqFCni3YuhPm++dEw99MD/+g68BnuenkJDT0+yNPaei/P+U3Por1cgS4USo6f0w6zA7aq1ehB9mOWgkcnDm8Jt16hFPMgMT9cL58znatDXBBYTZVjOUOWuDWcAsMAeHGkL6eEt6Mf5+vD78/X00DBmMbu7+jMPIffr86jN8YLYhx56O9JK4/vSruvhfeoPEee/aPpmTF6HlaVQfrPEp6MhWdLSi9o0ENNTvmn5at7sajs+nZ9mtU8tSUMQ2+5vNkMfDAlHp6t7u3g/zaNWydNVjgtqdfihUO1GURMMCkpyE0WpGmPj0dy51uEbRodLiFf17uhZMYUbJbV0oTeGvq48JN5hVaxYcCYNjE6SeFd56Or9T4hY+Zrzr83xifE+PEOwNsHgK+UrPNmjLeG9opMXQjjUQy0fo7C0VfH6hkwzuYxlfHGMGNMlEAcfopaeQe4a7x24bop0OR2NfdCRbXsw1ZYWVwwprwRXuODKujisggK88OPHIzxGNIANPfA8/GASa6Szh4b5fIZOKvKLIOQLnvXMSYaGiuj21b7HKFjR9cUv+E7H/waoYIqYWPzZCfQM57HYWvPh8ZG48oYeGy3gwIrd58HPz9f3enKtde47ogRuaGw/bjglNhgXLZ7ME5aqGGmbo7idDRnIV1nrN8YnwSDQ+4rpl8jHYUmjtp9K4yz43N1rJ4B412h/HpitwdMpc6XlplyMBkqAtIzdfePT8ijHhZ6JYZR+6FcphVX6Z2ZZ7wYT4eD8HTpiiZtOuNdZ72ydIR0F/JADu46RpygOv5lDLk1KCaD6xFPSCZ/s3rt2INCS0qX/dZmdTzjTLTh/jouSrLiR30tl9fqreS8LfmVw3QU6vA60Ol5wCYBMWo/rWUohsfV3/Z7aW6MF8fYe9guTdmZ/FG7vfojGT5CnisYe3iPyvZMGNzuEVoRsbEAbiw+Uv+z+PMwfNSJ/2nkkV9JvqhO8rPw0RoyDmwZtPG3sTZ6DODeIC4FU5RXkh+GAbZy9Fe3kDcfoFPGCfq69QcX7Xk/yMiZlqiLO4UppI9meTRg4mH+uh997UbHA41kSQve2IBJJYd0GRpIRcc+/ujctmgtb5rpe2U6rmZ5wwzdXEC3QavAasWen3+f6GTib4ylQpgxSl1Esct3aY/20bob48kxjl7OcgRw1G412a+sjk7IIwvlyoB8K4xH0veIsTdWPG6TEvfki6/yKFP3kKXqDMMiI71dPJvJu45jP7p9TughBUZBElQ82zc6ZU40vHT2QWO7tIAyDOy3IS4cPILdarxWdtZFLEL5m1LOdopjEV2A8S0Q7JlL6hsRkou9cEA0kdzm13QjxptGyqYM9Viq5SUq9VvTrPuuVayS5+CBY/hwAYiH0nGbHN2uRTa6Q2MYcKtgk/YmePzePeo6qxxujE+CwfvQV59HeQa9EiZ4V1j3JMZH4N0Yx7R0H6SqZNWpqG0mZeDZ+d1Zfdh2Pimt7NnueHSeOK74FpjszZpzzy1otvrxtNTy2NjpWTPqXQ/ZW45Fv/C7BpjzvDKLfs+LD2u/cfxTp1o8+7ewSNwQqGOSMYZUWfloA2VOjbcpyaTBa1HHKXo/2x9+ncSVIqpMI9oqYn0hjUQwoNgUviIdvufafI2xxyj7ZKZY7edsbyZP6L3fWY/OYau2jz4ivTFeBIM96e7zkRDvlXZYtsfjPRhneXwt2mfF4HZHtHPZmOnKpAZ61DyEyfpyuE3GLmQsO7bMC7BQn6Kzrqo2VB/1L8P0GBj1kHc1GDAAr0PBxQpue9tC6yLlT4TLUql1jxZ0oufBGzxBwIwo57h5P1hjgqMPw+PGxVA/MK4lYo0ymUR/c9Gil48MroK39L0TPhnrGMONXTP4LubAUoPrgP3yfhrKCV560CRzrHeeUngr1Em5N1TrLVmGFdpB+lpRuSu/1RvjhTC6kPsRyEcKseJ9BePMAB0pqI/GeCQ9OwaNa8zcZYKrXxvvWcHb1mkCTCbYXufq6rOXZU+B4yozw+/5iWF05IRYxRsXUByiE7r3B13WbU2cK9BwGAXHzYJbylFW7jcD41GF0t9RoSL1EYFqbOeKPkHY20BBuwM+RVdCy4PhAG4tjmy13cBSKwvnKkWKB4q3Wj6Jou4BQyUYJ46A5lHBGhYMvzkWezKdaLfco65Nzo2CoF+FVznPn10dpu63fmO8OMYq5C7w/cuijulW36+EDFYYj4YzjkLHZ+To6L809e8JgX+vGFewd65HepQYmjSf+HfahYrFGTEUWm8tGHxBjDj3BGTYsjjF0vvSoSEeNWr06QL69rOtCEwXOtp0NlRcdaO5k4q8HmST6ohU3yCrbjdtjst2NmOFwo3PGloHiYJ+DoYbi7B9lJCAEl3j2lYRCUPI0tpqUhFrbVzNijxcBvkwPAJGmYL+5kaJsWQVRlowvfpY66hOJCd8zt8YL45x9D50Tp210Al5xgLpaDtZOv5cdpXH2XqmZdnP0HaW1bNgcL5LCwzUAKhsBMoFNDXVN6Rl8uxmekEVx89kDbxDnRt2ojmloo9sRDV4aSrOOPYUDZaI+VaZ8HR1Q/4Bk23Qu0VFvnmxW9spOuG2j4AS4/EykXJS3MrhXG1VU65btXfiJJhVX45hRge2kAK+gEfRwpu0Z7YzKi/SGyhWmyMe0+6BQabQD4wFkKKGEXJDY2BMhsid7vQxqXsfujRlj4Zqz7Tbo+WyTgkdybDHbw+jMxjO5M/UPzPGyqCrCdy6yeMdCafbMskNJRbPX13ZtB6VT6N16VEqY8eqgfUIP5PYAeFhaesVDx/wgv51xeAXjjBGquh8trv1OQK8gym+jjbPYGcjQ+e+YsIV8aEYJ98X+CGx9HVWqxTA6e2noPg7jT+HwStjyptIDd2MqmI0bcTzOMxSrEdCl22wdSdqezhSFfloXvSEv7sz6crce2O8CAaH3Hmi3vPMEPRM2YrmDO2j7d6LcdT2LN2rYRzRb2WG6lUWM2HvabcHw1gSlnNnfCXS8Ig7lRRfWqW0J5ZJnn1OtsQhl1VN3zp4KzwCGNZQcW6JF4bZ53/de2d6x5KhkCFsHqu7MZTOZklVd3HSGj7ScMoyYCYY7965As51GAjABBiybVfeUNoaFEuogpFnsO9J1wfdRcj+RKWu3OLSb/os7ZUI243xQhgYcu8EOBM637MgrrbjsP8ev7N4nbHy0Rirds+O8chYQRl6lH2KSdHcs/KSKTbcTKDsGm7/oO+sDW2JDJTmPok3HnUoPsnoQUbbJbWJVb7o6ZPXXzCgc4HBchplDI+rhcad/eRKWouYvVaCwe6e++diwDA16kDRq2pd4VdZu/sCrmwYHcCPvfGwRjSMk3gpjXl8g2hLT0CKOAqX71SMu1Q5M4YC/bKZjyoPcsF475y4Sp1HeGO8OEZHfMTgI8IMKx5duPdKejSk/NEYe2XPhNGN1ZHFmLSLN3qkbwVaRbEU/o0lzl5mpW3vQ9Vn3qmQqjccFMHyLWuKTnIDg/pR9damYFODZD/wONrls//COfsHgqY6AFnilL00WOrIjm/57tmtLqwUBIeWsRcfhYS99Z53ZiYifgSvYVdNzF86g/vFdHU9baxqp8GxkknZ1dt4P2lc2htkNtpK3eiXTXcMt7N1FRbQNTThaIeIzNFRLj+bjta73BgvjPHjpnDFjK0GFqLziDm/5z13tKswxRWMPbz3YOzVvzqGLPJAi8pr9nG8nL/3zzH5+Ti8gFKstJqfWdcpudRSpshILngqQXzhSriRtZ/KrFmG7tt8eltilkbU//y0JrpQ9985Y49iwIp+cW/Yacd4aua3oZiPd+mOhKnXH4omzHksFFe/WUgp3R2UBop5D3jIC+2s44F3GXDsEcbrlSspjxfPyZl3wegm/L051tPeb14O6m6MF8U4WhQnTT1+rqyPzrO74pWvvOgjmpUH2xkrRxhnvNaVAuxkeDaMLh2NJSWTskLJZ3KDrzhXCs6Rzd7xkepKYpwkQUkFQobg03lLxVdD7qBUQJo6xXOYVQpNxahlpzDQ+V5iVKXS+ntOq5Q3XpfdAAHtPPhjPGP71uiPH4tb1jukQYS7Gaqp5o47j6BV8fw2YsvQbzGjQpmD59EFkmS+91YJIxpWv9N1M52bFZAs6xwRTmd+d9z+yNm5MV4Qo/PQhcpWoF+Irvs8k1aWyYq2y5+hf7TNmbQn12pcv3eMszIcGBoGE6DAs1Esbjy5CMEP/xttgy7vRoKiB2mgb2q0wMPjIc/YZ+4veKkYvrccPPDwYDXzLnx0iyMOrs5ZmY1+jue8VeVx3r/VkHg5tpbz5aE5XIRW0zT5GkgoWnDrQw0iT29io2sctH4q3ZAvx7iJWogWueuYk041aEsueblXhKM5/fGyq2EpBZgtF0zLgFILLQAACtJJREFUeMR7DZJ8NWceRcOOUtfmxnhxjCOvjq2BlVfbpZUXuWeVdJirsj2MvfqPxljxfwWMd6RUoP48MyZY7efGbaW0+RdYn+aaVdP1sQoRz2IN6nxvcZyaNpQAChJ/a2/VQSwbS1UlrqTzWa4bBvWPylCMEao1fIsY/fkRr0XhxUA2TL2fvFUswwiC12caVGCd764fhkSxyKyewlve6JZtZknHm9OQJlaBg1HSXH50jjEosDccMmjnHva74YuBQLfzbgJ58jZQOPYWOnDt9yoX6le0N8YLY/D70Pc87avWwxWv8Yj3FeyrMn8NjJXl9WwYV/kSbT1lLFxt/8KKJhQzJffkpjrwhiNhOPcNmw8OnTKUmH3bw2+Ch0ntUNKjF7ZY9xb9L2Wd4yxSvOpGxZZ+YJ87z951tXF9dIciCbFNbz6mh47PEQ+BpNfNB9WiBoUx6vqMNcVYi0GhcXD+bIV5Gfa4GmAzLxxBvMwzxtQ/+KxXTKc+bpRhHp310Lq0V382mndjvBjGF5k9PU5XrIZHPb6vhfGo9fNoFOCzYKx4QPK3a8T3qplyaXn5LxNPoIU3UWup2bCsum/Uvub7p9DpmBXfLzFKFbuEDb9C54oD3ssNdTMtu/aL7vC40XPwus2s9iuXpqdsMwyOrwGfjmdYOxvy7vDMfJFTbmnErWjIj/YiTBjzNeRrHqq8bAeUahWNgAlfCtO8L1I+0uQg65Dla0XIPmJOvjGeEINfzsLPxY8E6Z6dXhH4Cgam9wzKEcaj4e8jHs+M8UZ1qzUPXv7F7O2/eaA2jxeFSRUcdH8O7c+xR3WZzN1D1qEA8fk2TtbRTtlbZa8TD13tX85Z/C1a5FZkw3KTfI5vTT1im0A/BCZ7Adkar9tIXyEByxnhbhwfwyEDPrRKXDM/v5AF22u6+0URegdRWt6VkGOVEtauOWxZDImr94fs2cYF15YnltCwS7fgMqBiK19yyJe51JMDWwsR0VV+v6mI38/4vve7O/N77NKN8cIYq5B79/1KaP1KuorxKN4qVH1UfyUM8soYF0Pu+q9F7C9iuHv7f0yH7AGJK2dO1kyOWGb1exdzFotZ23DFUsac+1h0eUSA+aLNZomnvpWpvuYn2t67r6k+863hfiOaslxthhvWQXlpi+g4sxw1tDWyyqLOiM5q34BvSKQ8qlrru/vApkybsJZvj3pPglGntRvt2PH3xa26fVop+PLly7+R9z02e3TevjFeGIND7t3n1fx7aDsZVvkrGHs89ur38L5Gu+8d4zStvb3901Rm1fv1eCX+m3VVXeG2tLqL2BX55u1O27M08wpHw8baKxBagZ+ikodDVFSE3juOecQch8vo4AU0Uz6HAmRt6EYfCsYQEaO/aptc21/iq+YRKUFnMt5hrjLixaPLQ5NZjm9uFdg+wuufD02vHdGxtS06hsrZ/wAfZYH+xSeONXxfHWDkouEY4RjE+I3xCP5AFzZI8c4bEOx+R1PuT/3hj/76j39Hrkcaz9Kvfp83xotjXGW+Sp33956yRzE/Kr2XN4/rR/b7W2Ks0jHft//7z03sP4aiFJ81h4KNt5BhnlV7pk0hvcmmDN5KjYgUZV05GBX6u8l9Rk9vUUOJo8KpSiiOefU8/0mGYFNRppKqj621tvN+oEIL3g0tyWnwPZ9E2IRtoKRA5EH2RmM2FHMMIEYXrOYDC8eO8uPWSZsgrRLD64VL14dmTeTtRimXMOSjy0HfUcySH+3DxnATCC8/SlFvneO4Csqo8o/+7N/673/QUB3Nxx/xe74xXhjD4/Ds9uPnmTyDc9kj4dyLId7Tsp3BkKb8Kt9XwOB2e3wL7R/70z/9hYj9Fsx/oUlgZ1rkMfxZ11ZvBHF8KM/S4Enj4/ROlygovkIrXo5M+mSQs/hMOWP7GpRFP6yWLVQOtVthoDxKnJAPcY7rAXVmoqHIqYdjzDSJQdla/e4c0R6IawTXzw2OGG68Gfgya7lXDI+XjdHGvhf/GsTCKIBkHmgNaYHfCsPSAo3rsDVHc5KiGSI///Ij/XvSp6/ppNwYnwDjSsh9VX6H3K/J9swYe7RTux/+x+/91Ez+sVC4HMPeHta0odXTB3wTFRtKGDz3KW4qYQ1oEkaYHX1Kw6aSbSKPXiGnyRPLd25r9A8X2WVZ5DXLRiy6SmRJL9F2hQGitfvIm4SKJh4So+EgyT9W6Q0PnQ0dX5kXIXXIw6CFcRJheKA/FjNFiC/okae89dpiFEEErBjgs5KhedWqaInGlCiSJU3NkSR+/6j8zT/3t3/vZw3wmd8z03f5vXRjvDjGkZLraK/UX1WoVwyDsxh7/I4w9vA+SqF+zxhsPe7hThh/4i/8s7e3P/zDv25i/zJmQtfrNJlu+og9V5mVhvgLUKpxgPVF0bviV2zX/VWlVJ5fo+ykg/lPZYeOvr8Lg0nMIF+7HincTDde6Nl6Ge40HwrvUu9GxjA5hhsdbVyO4R17nnfLyfy19g/aJ62bYS4b7guQcRukUnWZRaptkSCDXwGBL3EP8r0FFwwNGr5mKqKqv20m/0DWvzn/zlGvPVquO/pd3xgvjLFjJ9/pTh+Tfvjdn/z6j37tj/xDEfnJmgpDtajxPd9pph1ee2XW0PAvocAOD9OIFr8HPdJSP3jxFtNexPiD//pv5Rf/+wcQc3XcDLOxoD0aSZczj7hVEHmTI1eHWx7bbizB/LXd1DDS2y9FfvYffjkNQzckVdZ62TCt+rsUg2/DPUargVcRFf2FqvyWvdlv/+bf/V/fIox7p0+aOiuCPztr4MgDPPIIVxhM233fw1jRHPHcoz2Sb0+2s/J8rxhn+Xa0kf+NP/PTn//+Dz/8VTH5ayLyX5w4g6UQy1QpK8i37533Ci7WilboCWjZo12V6yCHAIGRFrFKK95A8jlxSX4eWEYAZgx5HwYs2Cse/mCAB6i5PyvgOeMo9MGA4W37WPr4ugeuAp7+W8igQFtW7rNNhbL59cPOGw6VAn0jN9xC3hZpCrGTKMuhcCsiITNqUhN1GF75v9Av+pf+/N/54e8PZb43J11JZ+e2G+MTYWhTwTfd10xnsJDmiL6rfxTDLekVv/fI/gwYR3yv8Ij6n/+7n/ya/uhHf1lE/oqI/Kaq/kkzW/Rxz39c1Z10AU/j9EnZ2/4VpJ//59+VX/6fH6by2WtttM1eujJup9km4Rn2b78U+dm//6Vs5kEelor5EWuQsBZsPCoxfImOBoe0qBREQpea3WyUu6ORru7/icp/EpHf0R99+Se/8cflX/2pv/E/o1vyvt+aLNqveN0YnxCjeFPN59U8l+3xO6Llsqv5j/Q6H23X9flZMb43eW6MXz3Glbqj8hvjxrgx3oGxYtalR5/9HGGc2Q614ssWzJX+nMFgvM+Mcac7vTfhPfe1niXfGDfGp8XoQu7I8MuD+bPpTDjivelRjKvh7q9R/z1iHIXcT4ffb4ynxPjI9LX43hg3xqfF+AKNuk92878s2uzl97C68lXdt8bg8iMZuvHh8mfB6Hgc1T/S7sZ4LowzZatJaG9yuirLjXFj3Bg9xsumT9HJO93pTne60532Qu6YroStr4R4Hw1bXA0jfw0cfH6/Wo343nD3M2F0tFeuwY3xvBiPphvjxrgxPhgDQwDd59X8e2g7GVb5Kxh7PPbq9/DOtruC9z1jfIuxujGeD+M9dZxujBvjxngHxv8HBTw32Df9+4UAAAAASUVORK5CYII=;" vertex="1" parent="1">
          <mxGeometry x="1851.5" y="439.99999999999994" width="120" height="67.44" as="geometry" />
        </mxCell>
        <mxCell id="asST_lyemSe_a0fDVJPn-21" style="edgeStyle=orthogonalEdgeStyle;rounded=0;orthogonalLoop=1;jettySize=auto;html=1;entryX=0.5;entryY=0;entryDx=0;entryDy=0;entryPerimeter=0;" edge="1" parent="1" source="asST_lyemSe_a0fDVJPn-20" target="asST_lyemSe_a0fDVJPn-10">
          <mxGeometry relative="1" as="geometry">
            <Array as="points">
              <mxPoint x="2175" y="177" />
              <mxPoint x="1912" y="177" />
            </Array>
          </mxGeometry>
        </mxCell>
        <mxCell id="asST_lyemSe_a0fDVJPn-22" style="edgeStyle=orthogonalEdgeStyle;rounded=0;orthogonalLoop=1;jettySize=auto;html=1;entryX=0.5;entryY=1;entryDx=0;entryDy=0;" edge="1" parent="1" source="asST_lyemSe_a0fDVJPn-20" target="asST_lyemSe_a0fDVJPn-17">
          <mxGeometry relative="1" as="geometry">
            <Array as="points">
              <mxPoint x="2175" y="527" />
              <mxPoint x="1912" y="527" />
            </Array>
          </mxGeometry>
        </mxCell>
        <mxCell id="asST_lyemSe_a0fDVJPn-20" value="Ciudadano&lt;br&gt;preocupado" style="html=1;verticalLabelPosition=bottom;align=center;labelBackgroundColor=#ffffff;verticalAlign=top;strokeWidth=2;strokeColor=#0080F0;shadow=0;dashed=0;shape=mxgraph.ios7.icons.user;" vertex="1" parent="1">
          <mxGeometry x="2160" y="319" width="30" height="30" as="geometry" />
        </mxCell>
        <mxCell id="asST_lyemSe_a0fDVJPn-25" value="" style="verticalLabelPosition=bottom;html=1;verticalAlign=top;align=center;strokeColor=none;fillColor=#00BEF2;shape=mxgraph.azure.azure_instance;" vertex="1" parent="1">
          <mxGeometry x="1210" y="500" width="50" height="50" as="geometry" />
        </mxCell>
        <mxCell id="asST_lyemSe_a0fDVJPn-27" style="edgeStyle=orthogonalEdgeStyle;rounded=0;orthogonalLoop=1;jettySize=auto;html=1;" edge="1" parent="1" source="asST_lyemSe_a0fDVJPn-26" target="asST_lyemSe_a0fDVJPn-5">
          <mxGeometry relative="1" as="geometry" />
        </mxCell>
        <mxCell id="asST_lyemSe_a0fDVJPn-26" value="Entrenamiento&lt;br&gt;notebooks" style="image;aspect=fixed;html=1;points=[];align=center;fontSize=12;image=img/lib/azure2/analytics/Azure_Databricks.svg;" vertex="1" parent="1">
          <mxGeometry x="1580" y="196" width="62.8" height="68" as="geometry" />
        </mxCell>
      </root>
    </mxGraphModel>
  </diagram>
</mxfile>
